<svg width="992" height="180" viewBox="0 0 992 180" fill="none" xmlns="http://www.w3.org/2000/svg">
<path d="M840.708 4.113C840.855 1.95276 842.845 0.482088 844.792 0C857.098 4.43643 868.47 10.9965 880.134 16.8304C883.632 18.6428 887.276 20.1684 890.688 22.1577C896.255 25.0381 902.018 27.5095 907.658 30.2373C911.058 31.6653 914.14 33.7706 917.681 34.8812C923.711 37.6883 929.742 40.5259 935.572 43.7419C937.507 44.7793 939.118 46.3171 940.571 47.9525C942.03 49.3134 941.603 51.6201 940.98 53.2982C939.478 56.3006 937.397 59.0222 935.016 61.3778C931.97 63.0071 928.662 64.191 925.83 66.2231C922.204 68.9142 918.004 70.8731 914.916 74.2477C910.46 78.7635 905.631 82.9131 901.664 87.8804C899.741 89.8881 898.502 92.4206 896.64 94.471C895.975 95.1484 895.602 96.0027 895.419 96.9181C890.408 94.9531 885.683 92.1033 881.715 88.4662C877.76 84.9025 877.339 79.3127 876.209 74.443C875.685 71.6786 874.036 68.8105 871.192 67.9439C869.22 67.352 867.206 66.455 865.124 66.6075C861.468 69.6465 860.131 74.4918 859.142 78.9526C858.074 81.9306 858.111 85.116 858.184 88.2344C857.928 96.0088 859.24 104.015 863.006 110.899C859.124 112.278 855.053 112.986 851.055 113.919C851.042 113.687 851.018 113.224 851.006 112.992L851.805 112.998C850.835 110.343 851.201 107.506 851.158 104.754C851.183 102.508 850.963 100.232 851.5 98.0287C851.579 91.5968 853.124 85.3296 854.381 79.0564C855.236 74.7664 857.293 70.8487 858.477 66.6746C858.752 66.4672 859.313 66.0461 859.588 65.8325C859.674 65.2345 859.777 64.6425 859.899 64.0506C860.833 63.3305 861.212 62.2382 861.651 61.1886C864.13 57.1183 867.45 53.6583 870.24 49.826C862.115 42.3322 854.052 34.6676 847.252 25.9168C844.108 22.0479 841.349 17.703 840.232 12.7845C839.103 9.94689 840.482 6.99333 840.708 4.113Z" fill="#5B4A9E"/>
<path d="M85.5893 5.81543C84.0145 4.717 81.4386 5.00382 80.4497 3.20361C88.9466 3.45991 96.8697 8.83001 100.337 16.5739C101.582 18.9844 101.722 21.7365 102.492 24.3057C100.184 24.5253 97.9135 24.0311 95.6611 23.6161C94.2022 21.5596 92.7311 18.8318 89.8866 18.6976C87.3901 18.7708 84.863 18.9783 82.4518 18.185C84.2587 19.7655 85.6626 21.761 87.5244 23.2805C88.7696 24.3789 90.5215 24.3057 92.0719 24.208C91.8399 24.3972 91.3699 24.7816 91.138 24.9708C91.5286 26.234 92.0231 27.4728 92.6396 28.6506C89.9355 27.6681 87.0971 26.649 84.1671 27.0456C81.3531 27.2836 78.7711 28.6567 76.6774 30.4996C72.2885 34.3319 70.6648 40.5075 70.8175 46.1583C71.5072 56.8436 76.6774 66.705 77.0192 77.4513C75.4382 69.9759 72.2153 62.9643 68.3453 56.4103C65.4947 51.6016 62.5891 46.6892 61.3012 41.1909C60.0315 34.6492 60.5443 27.5582 63.9381 21.6999C65.8121 17.9958 68.9923 15.2802 72.0077 12.5403C69.5112 13.6021 67.0879 14.8287 64.7622 16.2322C67.155 11.6249 71.8552 8.63474 76.6408 6.97489C79.4914 5.86425 82.5922 6.04732 85.5893 5.81543Z" fill="#5B4A9E"/>
<path d="M121.738 12.0889C135.1 14.0477 147.283 21.4804 156.47 31.2198C158.875 33.5143 161.079 36.0224 162.873 38.8295C171.486 50.5888 176.211 64.9416 177.413 79.3921C176.29 78.0129 175.124 76.6704 173.83 75.4438C173.494 72.1912 172.597 68.9875 170.955 66.1499C169.606 63.9958 169.496 61.3961 168.874 58.9918C166.371 47.562 160.267 37.1209 152.179 28.7362C143.828 20.5224 133.183 14.6275 121.738 12.0889Z" fill="#5B4A9E"/>
<path d="M664.08 30.3285C664.135 29.1812 663.854 27.8692 664.672 26.9111C664.959 37.3035 664.788 47.702 664.867 58.0943C666.009 58.1431 667.163 58.1981 668.322 58.2713C667.218 59.3697 665.539 58.6923 664.178 58.7412C664.037 54.5366 664.245 50.3321 663.976 46.1336C663.695 40.8673 664.233 35.6009 664.08 30.3285Z" fill="#5B4A9E"/>
<path d="M16.2408 48.4346C19.0059 41.4168 23.8404 35.0398 30.4145 31.2075C18.6153 52.7978 22.1679 81.186 37.9286 99.8715C42.5128 105.083 47.9882 109.91 54.6599 112.156C53.9519 112.479 53.2743 113.12 52.4258 112.802C41.1272 111.79 29.7186 109.001 20.0375 102.904C11.2171 97.2902 4.61861 87.8071 3.59923 77.2866C2.68361 69.7502 5.47318 61.6828 11.4125 56.807C10.1672 69.4268 15.7219 81.778 23.8038 91.2062C29.3707 97.4916 35.9509 103.02 43.4772 106.81C41.762 105.046 39.4852 104.009 37.5746 102.489C28.4246 95.4107 20.7639 86.1168 16.5704 75.2667C13.3414 66.7295 12.8225 56.9962 16.2408 48.4346Z" fill="#5B4A9E"/>
<path d="M156.47 43.8091C160.346 47.6048 162.562 52.7857 163.673 58.0276C165.474 67.8281 163.27 77.9763 159.119 86.9102C157.764 90.0591 155.768 92.8661 154.157 95.8807C153.449 95.3864 152.753 94.886 152.057 94.3856C160.877 79.2944 163.02 60.1574 156.47 43.8091Z" fill="#5B4A9E"/>
<path d="M166.872 64.0259C170.235 68.7003 171.938 74.522 171.639 80.2765C171.328 88.5331 167.854 96.3929 162.934 102.935C160.242 100.494 157.465 98.1443 154.45 96.1122C161.585 86.9159 165.919 75.6204 166.872 64.0259Z" fill="#5B4A9E"/>
<path d="M174.025 78.8975C179.025 85.0426 179.739 93.6164 177.975 101.104C176.668 105.736 175.026 110.343 172.334 114.371C171.761 114.084 171.388 113.547 171.01 113.059C168.849 110.068 166.609 107.139 164.326 104.247C170.247 97.1802 173.708 88.1121 174.025 78.8975Z" fill="#5B4A9E"/>
<path d="M4.15466 94.5381C6.51695 96.1613 8.42753 98.3338 10.7837 99.9692C18.6763 105.974 27.9728 110.075 37.6966 111.985C43.4406 112.888 49.2212 113.785 55.0567 113.492L55.7342 114.432C55.5755 113.999 55.2581 113.132 55.0994 112.699C61.5758 115.292 68.5711 113.791 75.31 114.365C68.9862 122.756 58.8717 127.674 48.6657 129.377C38.4474 131.036 27.6371 129.053 18.7312 123.762C12.7187 120.192 7.60347 114.804 5.17405 108.177C3.53815 103.832 3.69075 99.0844 4.15466 94.5381Z" fill="#5B4A9E"/>
<path d="M3.67236 111.722C5.50969 114.035 6.90753 116.683 8.97071 118.813C17.3883 127.778 29.8528 132.409 42.0549 132.098C47.7134 132.22 53.2132 130.804 58.6031 129.224C53.3597 132.788 47.7805 135.827 42.1037 138.64C42.3967 140.336 45.1008 140.538 45.6502 142.271C38.3314 144.193 30.6402 145.273 23.0773 144.364C21.3376 144.028 19.4209 143.882 17.9498 142.826C16.2102 141.081 14.8795 138.975 13.5488 136.907C9.69099 130.316 6.43751 123.329 4.3316 115.969C3.90432 114.596 3.77613 113.15 3.67236 111.722Z" fill="#5B4A9E"/>
<path d="M46.4072 139.055C57.5228 133.63 67.7288 126.228 76.1952 117.19C76.3905 123.665 79.3022 129.816 83.4529 134.692C76.3905 140.58 67.1062 144.022 57.8646 143.412C53.7321 143.241 49.4837 141.898 46.4072 139.055Z" fill="#5B4A9E"/>
<path d="M81.8293 139.036C83.1844 138.237 84.3442 137.053 85.8702 136.577C88.4766 138.243 91.0037 140.068 93.8177 141.398C96.0457 142.667 98.5423 143.369 100.721 144.73C93.3843 150.314 84.4845 153.847 75.3345 154.964C68.1134 156.05 60.5016 155.598 53.6406 152.986C52.8287 152.736 52.1023 152.291 51.5591 151.638C56.7781 150.021 61.6736 147.568 66.5812 145.212C71.9223 143.888 77.1108 141.88 81.8293 139.036Z" fill="#5B4A9E"/>
<path d="M43.2453 144.413C45.1071 144.12 47.0299 142.631 48.8916 143.613C52.0658 145.194 55.6183 145.706 59.0794 146.237C54.599 148.05 50.143 149.911 45.5405 151.406C46.7796 152.205 48.0371 152.974 49.264 153.798C41.9635 155.043 34.1686 154.964 27.3076 151.894C24.2922 150.491 21.3011 148.385 19.9766 145.224C27.625 147.336 35.6458 146.036 43.2453 144.413Z" fill="#5B4A9E"/>
<path d="M85.4429 155.006C88.8734 154.042 92.0353 152.382 95.3193 151.046C87.7197 158.35 77.9409 163.348 67.6678 165.612C58.7375 167.236 49.1602 167.132 40.7548 163.373C36.7811 161.713 33.8023 158.485 30.9089 155.421C37.0191 156.099 43.2819 156.764 49.3494 155.36C50.3077 155.22 51.321 154.75 52.2855 155.092C62.8822 159.168 74.7668 158.308 85.4429 155.006Z" fill="#5B4A9E"/>
<path d="M23.9809 27.5156C28.5589 23.0365 33.1736 18.2705 39.1068 15.6099C37.7883 17.465 35.8045 18.6122 34.0831 20.028C24.75 27.5827 17.2542 37.5174 12.8409 48.7092C11.7666 51.1196 11.5896 54.0854 9.42873 55.8673C7.42659 57.6614 5.87004 59.8644 4.06323 61.8415C5.26574 56.8254 7.35944 52.0777 9.66068 47.4704C13.3598 40.1414 17.9989 33.1908 23.9809 27.5156Z" fill="#CAC7F0"/>
<path d="M70.8176 46.1582C70.665 40.5074 72.2887 34.3318 76.6775 30.4995C76.5188 33.2517 75.5056 36.0283 76.3235 38.7621C77.5748 43.4671 80.9748 47.1407 83.0991 51.4429C86.5051 57.6124 88.3913 64.679 87.7809 71.7577C87.4268 79.0684 84.2405 85.7749 81.5547 92.457C78.8567 98.7242 76.6287 105.272 76.0366 112.113C74.828 112.332 73.6133 112.528 72.3986 112.705C72.8014 103.972 76.6775 95.795 77.2269 87.0625C77.5199 83.8526 77.2635 80.6489 77.0194 77.4512C76.6775 66.7049 71.5074 56.8435 70.8176 46.1582Z" fill="#CAC7F0"/>
<path d="M455.064 32.5499C455.711 31.7993 456.773 31.9457 457.664 31.8786C467.034 31.8542 476.404 31.665 485.773 31.8542C487.513 31.9579 489.473 31.5918 490.962 32.7451C478.925 33.1601 466.863 32.5804 454.832 33.0197C455.003 34.0083 455.21 34.9908 455.418 35.9733C456.37 36.2113 457.353 36.4066 458.287 36.7544C456.999 37.2975 455.711 36.8643 454.472 36.4493C454.551 35.1617 453.867 33.4957 455.064 32.5499Z" fill="#CAC7F0"/>
<path d="M0.803693 94.3794C-0.0752957 87.8559 -0.496477 81.1494 0.937984 74.6748C1.33475 77.9884 2.22595 81.2654 2.18322 84.6095C1.74983 87.8681 0.944087 91.078 0.803693 94.3794Z" fill="#CAC7F0"/>
<path d="M990.148 149.368C990.722 148.495 992.358 149.392 991.631 150.314C991.027 151.18 989.404 150.277 990.148 149.368Z" fill="#CAC7F0"/>
<path d="M95.6611 23.6162C97.9135 24.0312 100.184 24.5255 102.492 24.3058C106.96 28.9314 111.526 33.4594 116.33 37.7371C117.19 38.6159 118.637 39.5678 118.13 41.008C117.19 41.722 116.152 41.0812 115.231 40.7029C109.365 37.7859 103.419 35.0338 97.4801 32.2694C95.6305 31.4212 94.1228 30.0115 92.6395 28.6507C92.023 27.4729 91.5286 26.2341 91.1379 24.9709C91.3699 24.7818 91.8399 24.3973 92.0719 24.2081C93.2622 23.9762 94.4525 23.7322 95.6611 23.6162Z" fill="#2E256C"/>
<path d="M159.986 125.715C163.38 122.798 167.744 121.602 171.987 120.547C173.03 120.449 174.093 120.498 175.149 120.522C172.341 128.364 168.092 135.583 163.496 142.497C153.839 155.452 140.636 165.79 125.687 171.959C117.282 175.566 108.321 177.799 99.2625 178.989C93.8115 179.16 88.3545 179.288 82.9035 179.105C76.9154 179.361 71.0372 177.897 65.2688 176.499C59.6592 174.974 54.1411 173.045 48.9465 170.428C46.4987 169.152 43.6725 168.377 41.7131 166.345C47.103 168.078 52.7554 169.238 58.4506 168.994C69.7126 168.554 80.7671 164.716 90.0026 158.272C95.2033 154.799 99.525 150.235 103.895 145.841C107.503 146.36 110.97 147.769 114.639 147.946C120.334 148.313 126.212 148.514 131.718 146.781C136.943 145.603 141.765 142.985 145.928 139.659C150.934 135.339 155.011 130.06 159.986 125.715Z" fill="#2E256C"/>
<path d="M664.672 26.9111C665.697 26.96 666.735 27.0332 667.773 27.1369C668.981 28.2292 668.682 30.5237 670.343 31.2682C671.85 31.8297 673.352 32.6413 675.018 32.5925C707.571 32.568 740.131 32.5741 772.69 32.5558C773.502 32.5314 774.326 32.4826 775.156 32.4216C776.828 31.7015 778.507 30.9143 779.63 29.407C779.697 28.632 779.777 27.8631 779.868 27.1003C781.217 27.082 782.572 27.082 783.94 27.0698C783.952 37.6086 784.056 48.1535 783.897 58.6923C782.67 58.7229 781.455 58.7656 780.253 58.8266C779.966 55.812 777.463 52.95 774.265 53.1758C761.825 53.0965 749.378 53.0598 736.944 53.2185C737.115 83.4131 736.963 113.602 737.018 143.796C737.555 144.516 738.049 145.303 738.715 145.944C739.783 146.268 740.924 146.268 742.041 146.414C742.066 147.732 742.053 149.056 742.011 150.387C730.443 150.454 718.876 150.399 707.309 150.417C707.254 149.136 707.217 147.86 707.181 146.585C707.938 146.365 708.707 146.146 709.494 145.938C710.312 144.919 711.649 144.077 711.368 142.563C711.539 112.759 711.411 82.9493 711.466 53.1392C698.916 53.1026 686.366 53.1087 673.822 53.1575C670.983 53.0598 668.261 55.3299 668.322 58.2713C667.162 58.1981 666.009 58.1431 664.867 58.0943C664.788 47.702 664.959 37.3035 664.672 26.9111Z" fill="#2E256C"/>
<path d="M200.438 32.6293C222.919 32.5012 245.4 32.5744 267.888 32.5683C272.771 32.4523 277.642 32.8795 282.532 32.8856C286.261 32.8917 289.783 34.3746 293.507 34.4844C299.867 36.1687 306.362 38.0726 311.917 41.7768C317.648 45.3711 322.275 51.0219 323.722 57.7162C323.954 61.9696 324.082 66.2656 323.63 70.5129C322.489 74.1438 320.682 77.6893 317.685 80.1486C313.113 84.0541 307.784 87.2945 301.918 88.7834C303.713 89.7476 305.568 90.5897 307.479 91.2915C312.417 93.3114 317.044 96.21 320.707 100.122C325.657 104.656 327.305 111.673 327.427 118.154C327.726 125.361 325.108 132.757 319.876 137.804C314.352 143.815 306.551 147.141 298.714 148.861C295.13 149.313 291.663 150.576 288.013 150.375C258.817 150.399 229.615 150.485 200.419 150.35C200.413 149.075 200.413 147.8 200.419 146.524C202.568 146.219 205.529 146.372 206.444 143.9C206.78 141.435 206.53 138.945 206.591 136.467C206.56 104.345 206.548 72.2216 206.591 40.1047C206.572 39.1589 206.096 38.3228 205.785 37.4624C204.46 37.1451 203.154 36.7789 201.817 36.5348C199.803 36.2602 200.462 34.0634 200.438 32.6293ZM232.393 51.7847C232.423 60.566 232.332 69.3657 232.448 78.1409C233.675 79.1051 235.347 78.3057 236.769 78.385C250.18 78.2141 263.591 78.3179 277.001 78.324C282.318 78.4582 287.69 77.8358 292.646 75.8342C295.698 74.3086 297.853 71.4405 298.537 68.1147C299.355 64.8194 298.494 61.4204 297.133 58.4058C295.485 55.2508 291.859 54.1036 288.666 53.2065C283.124 51.5162 277.27 51.8274 271.55 51.7847C258.494 51.8091 245.443 51.7237 232.393 51.7847ZM232.368 98.1628C232.515 108.769 232.167 119.393 232.551 129.987C241.482 130.097 250.412 130.017 259.342 130.048C267.375 129.975 275.439 130.383 283.423 129.37L283.429 128.919C286.994 129.407 290.266 127.979 293.501 126.734C297.291 124.842 300.508 121.382 301.491 117.184C302.993 111.564 300.386 105.205 295.43 102.178C292.31 99.9508 288.483 99.4016 284.894 98.3398C281.879 98.0041 278.826 98.1994 275.799 98.1384C261.32 98.1994 246.841 98.053 232.368 98.1628Z" fill="#2E256C"/>
<path d="M358.607 32.5679C370.064 32.6045 381.528 32.5374 392.985 32.5923C393.919 32.5984 394.822 32.8669 395.738 33.0622C395.707 33.9592 395.634 34.8502 395.53 35.7411C394.126 36.7175 392.338 37.0165 391.068 38.1638C390.513 39.0913 390.672 40.2325 390.604 41.2638C390.653 64.2514 390.562 87.2391 390.659 110.221C390.775 116.555 393.406 123.408 399.065 126.776C406.005 131.005 414.337 132.086 422.309 132.409C432.424 132.58 443.124 132.324 452.256 127.466C457.444 124.934 460.454 119.423 461.424 113.919C461.925 110.074 461.784 106.187 461.827 102.318C461.778 81.7409 461.857 61.1636 461.803 40.5864C462.132 38.4262 460.118 37.1508 458.287 36.7541C457.353 36.4063 456.37 36.211 455.418 35.973C455.21 34.9905 455.003 34.008 454.832 33.0194C466.863 32.5801 478.925 33.1598 490.962 32.7448C490.87 34.0019 490.705 35.2651 490.296 36.4673C488.386 36.7541 485.908 37.4071 485.944 39.8053L485.523 39.6894C485.596 63.4093 485.547 87.1232 485.572 110.843C485.377 117.269 484.015 123.719 481.397 129.608C477.124 138.731 468.309 145.151 458.683 147.683C454.777 148.959 450.65 149.191 446.671 150.136C435.506 150.808 424.299 151.223 413.122 150.606C408.935 150.246 404.687 150.545 400.591 149.471C393.186 148.47 385.758 146.274 379.648 141.862C373.22 137.48 368.868 130.493 366.853 123.06C364.699 114.486 364.509 105.589 364.644 96.7955C364.644 78.0794 364.595 59.3634 364.693 40.6474C364.748 39.5368 364.339 38.4994 363.923 37.4986C362.318 37.0714 360.725 36.571 359.058 36.4612C358.564 35.2163 358.485 33.886 358.607 32.5679Z" fill="#2E256C"/>
<path d="M522.771 33.0439C523.851 32.7937 524.944 32.5251 526.073 32.5618C552.711 32.5984 579.349 32.4946 605.988 32.6167C609.919 32.995 613.978 32.4946 617.793 33.7151C619.942 34.3986 622.298 34.1911 624.343 35.2346C630.758 37.1202 637.222 40.0433 641.648 45.2303C644.425 48.6782 646.293 52.8034 647.324 57.0995C647.898 62.3414 649.247 67.6566 647.941 72.9168C647.526 79.3548 645.2 85.8539 640.653 90.5344C634.939 96.5697 626.723 99.1632 618.898 101.061C613.984 101.464 609.137 102.55 604.193 102.513C588.591 102.648 572.989 102.458 557.387 102.587C557.381 114.7 557.448 126.819 557.368 138.932C557.338 140.781 557.381 142.637 557.57 144.486C559.438 146.133 561.886 146.39 564.278 146.505C564.278 147.75 564.297 148.995 564.321 150.24C550.593 150.582 536.84 150.411 523.1 150.332C523.106 149.044 523.112 147.756 523.106 146.469C525.664 146.316 528.435 146.304 530.553 144.62C531.652 144.199 531.383 142.893 531.481 141.959C531.487 108.183 531.493 74.3997 531.493 40.623C531.756 39.1279 530.468 38.0661 529.284 37.4742C527.324 36.7419 525.243 36.4429 523.204 36.0889C523.045 35.0698 522.893 34.0569 522.771 33.0439ZM557.411 53.1634C557.344 62.7442 557.326 72.3371 557.491 81.9179C574.796 81.8385 592.107 81.9972 609.418 81.8324L609.302 81.332C613.599 80.9415 618.275 79.3487 620.882 75.7178C621.73 73.4477 623.11 71.257 622.981 68.7489C623.317 64.2942 622.017 59.2414 618.245 56.5014C614.13 53.7798 609.058 53.0597 604.217 53.1146C588.615 53.1024 573.013 53.0536 557.411 53.1634Z" fill="#2E256C"/>
<path d="M865.124 66.607C867.206 66.4545 869.22 67.3515 871.192 67.9435C874.036 68.81 875.684 71.6781 876.209 74.4425C877.339 79.3122 877.76 84.902 881.715 88.4658C885.683 92.1028 890.407 94.9526 895.419 96.9176C901.779 99.6697 908.518 101.433 914.903 104.149C923.937 107.548 933.142 110.538 942.396 113.217C947.041 115.103 952.364 116.03 956.051 119.698C957.784 121.37 957.095 124.012 956.264 125.965C955.446 128.589 953.829 130.829 952.413 133.154C950.752 135.869 948.195 137.858 946.223 140.336C944.111 143.052 940.778 144.242 938.141 146.322C934.161 149.325 929.803 151.778 925.75 154.677C921.245 157.423 916.569 160.266 911.277 161.121C906.785 162.17 902.084 161.774 897.635 163.049C894.003 164.099 890.066 162.988 886.507 164.386C883.278 165.74 879.548 164.337 876.374 165.856C873.182 166.814 869.812 166.338 866.601 167.034C862.445 168.395 858.001 168.071 853.758 169.017C846.299 169.957 838.773 170.201 831.283 170.781C825.71 170.579 820.082 170.042 814.808 168.114C805.42 164.831 795.989 161.609 786.858 157.648C785.545 157.008 784.05 156.495 783.097 155.348C782.493 153.621 782.866 151.717 782.823 149.917C791.436 142.685 800.659 136.266 809.699 129.59C814.332 126.337 818.996 123.011 824.288 120.894C827.273 119.502 830.477 118.691 833.554 117.538C835.22 117.123 837.003 117.049 838.541 116.189C840.69 115.804 842.954 115.786 844.969 114.84C846.879 113.98 849.04 114.334 851.054 113.919C855.053 112.985 859.124 112.277 863.006 110.898C859.24 104.015 857.928 96.0083 858.184 88.2339C858.111 85.1156 858.074 81.9301 859.142 78.9522C860.131 74.4913 861.468 69.646 865.124 66.607Z" fill="#2E256C"/>
</svg>
