<?xml version="1.0" encoding="UTF-8"?>
<!DOCTYPE svg PUBLIC "-//W3C//DTD SVG 1.1//EN" "http://www.w3.org/Graphics/SVG/1.1/DTD/svg11.dtd">
<!-- Creator: CorelDRAW X7 -->
<svg xmlns="http://www.w3.org/2000/svg" xml:space="preserve" width="139.857mm" height="56.4016mm" version="1.1" style="shape-rendering:geometricPrecision; text-rendering:geometricPrecision; image-rendering:optimizeQuality; fill-rule:evenodd; clip-rule:evenodd"
viewBox="0 0 10736 4330"
 xmlns:xlink="http://www.w3.org/1999/xlink">
 <defs>
  <style type="text/css">
   <![CDATA[
    .fil0 {fill:#973033}
    .fil1 {fill:#973033;fill-rule:nonzero}
   ]]>
  </style>
 </defs>
 <g id="图层_x0020_1">
  <metadata id="CorelCorpID_0Corel-Layer"/>
  <path class="fil0" d="M10610 3520l0 -553 126 0 0 774 -206 0 -283 -588 0 587 -124 0 0 -775 218 0 269 555zm-565 -555l0 775 -177 0 0 -775 177 0zm-483 477l-119 -331 -113 331 232 0zm-273 113l-63 185 -122 0 268 -775 198 0 272 775 -176 0 -68 -185 -309 0zm-386 -171l-261 0 0 356 -176 0 0 -775 176 0 0 323 261 0 0 -323 175 0 0 775 -175 0 0 -356zm-492 313c0,5 -20,15 -60,28 -40,13 -89,20 -146,21 -135,0 -228,-34 -281,-102 -53,-68 -80,-174 -80,-318 3,-78 15,-143 36,-196 21,-53 56,-95 105,-124 48,-30 113,-45 195,-46 49,0 93,4 132,11 39,8 67,14 84,19l33 131c-14,-10 -40,-22 -77,-37 -37,-15 -82,-23 -134,-23 -72,0 -120,26 -144,76 -25,50 -37,113 -37,189 0,58 3,109 10,154 7,44 21,82 44,114 22,31 55,49 99,51 51,0 94,-5 128,-14 34,-10 60,-21 78,-33 17,-11 25,-17 25,-18 0,0 0,0 0,0l-10 117zm-598 -732l-241 306 284 469 -188 0 -198 -341 -70 88 0 253 -176 0 0 -775 176 0 0 364 285 -364 128 0zm-647 732c0,5 -20,15 -60,28 -40,13 -89,20 -146,21 -135,0 -228,-34 -281,-102 -53,-68 -80,-174 -80,-318 3,-78 15,-143 36,-196 21,-53 56,-95 104,-124 49,-30 114,-45 196,-46 49,0 93,4 132,11 39,8 67,14 84,19l33 131c-14,-10 -40,-22 -77,-37 -37,-15 -82,-23 -134,-23 -72,0 -120,26 -145,76 -24,50 -36,113 -36,189 0,58 3,109 10,154 6,44 21,82 44,114 22,31 55,49 99,51 51,0 93,-5 128,-14 34,-10 60,-21 78,-33 17,-11 25,-17 25,-18 0,0 0,0 0,0l-10 117zm-1072 -346c3,91 12,161 28,211 17,50 55,76 115,76 44,0 77,-13 99,-40 22,-27 36,-60 42,-100 5,-39 8,-87 8,-144 0,-57 -2,-105 -7,-143 -5,-38 -19,-71 -40,-99 -21,-28 -54,-42 -97,-42 -62,0 -102,25 -121,76 -18,50 -27,119 -27,205zm144 -389c81,0 146,14 196,43 49,29 85,73 106,130 22,57 32,129 32,216 0,90 -11,164 -35,222 -23,59 -60,102 -109,131 -50,28 -113,42 -192,42 -74,0 -136,-13 -184,-41 -48,-28 -84,-71 -107,-130 -23,-58 -34,-133 -34,-224 0,-130 28,-227 81,-291 54,-65 136,-97 246,-98zm-715 681l376 0 0 97 -552 0 0 -775 176 0 0 678zm-390 -485c-6,-64 -44,-97 -115,-97l-160 0 0 227 155 0c80,0 120,-44 120,-130zm-107 485c82,0 123,-45 123,-134 0,-40 -12,-71 -36,-93 -24,-21 -55,-32 -91,-32l-164 0 0 259 168 0zm12 -678c151,0 226,62 226,185 0,73 -20,121 -62,145 -41,24 -75,36 -103,36 129,12 193,74 193,186 -1,86 -24,145 -70,176 -45,31 -105,47 -179,47l-361 0 0 -775 356 0zm1450 -1851c0,182 -37,322 -110,420 -74,98 -168,163 -284,195 -117,32 -254,48 -413,48l-458 0 0 916 -505 0 0 -2224 1021 0c234,0 416,47 546,141 131,94 198,262 203,504zm-477 -15c-3,-113 -34,-199 -94,-261 -61,-61 -138,-92 -235,-92l-459 0 0 759 444 0c114,0 199,-29 257,-87 58,-59 87,-165 87,-319zm2501 -630l-692 879 816 1345 -539 0 -568 -978 -201 252 0 726 -506 0 0 -2224 506 0 0 1046 816 -1046 368 0zm1347 2258c-258,0 -451,-40 -582,-119 -131,-79 -214,-173 -251,-284 -37,-110 -56,-236 -56,-375l0 -1480 516 0 0 1475c0,4 -1,17 -3,38 -1,23 -2,41 -2,58 0,260 145,391 434,391 268,0 401,-127 401,-382 0,-21 -1,-44 -2,-72 -2,-27 -3,-43 -3,-47l0 -1461 425 0 0 1461 0 105c0,461 -293,692 -877,692z"/>
  <path class="fil1" d="M2921 484c134,77 263,148 371,207 300,165 450,247 533,391 83,144 79,315 72,657 -2,110 -5,241 -5,426l0 17 0 2 0 0c0,175 3,300 5,407 7,341 11,512 -72,656 -84,144 -233,227 -533,391 -108,60 -237,131 -371,208 -146,84 -265,156 -366,218 -293,177 -439,266 -605,266 -165,0 -312,-89 -605,-266 -100,-62 -220,-134 -365,-218 -135,-77 -263,-148 -372,-208 -299,-164 -449,-247 -532,-391 -83,-144 -80,-315 -73,-656 3,-107 5,-232 6,-407l-1 0 1 -1 0 -18c0,-185 -3,-316 -6,-426 -7,-341 -10,-512 73,-656 83,-145 233,-227 532,-392 109,-59 237,-130 372,-207 145,-84 265,-157 365,-218 293,-177 440,-266 605,-266 166,0 312,89 605,266 101,61 220,134 366,218zm-865 2637c63,31 112,89 129,159 98,44 213,114 370,209 82,49 175,106 285,170 147,-85 259,-146 355,-199 44,-24 85,-47 123,-67 -38,-21 -79,-44 -123,-68l0 0c-100,-55 -218,-120 -375,-211 -146,-84 -267,-157 -370,-219 -125,-76 -220,-134 -298,-173 -24,36 -57,65 -96,84l0 315zm88 364c-44,59 -114,97 -194,97 -79,0 -150,-38 -194,-97 -79,39 -176,98 -306,177 -57,34 -120,72 -190,114 70,42 133,80 190,114 260,158 390,236 500,236 111,0 241,-78 500,-236 57,-34 120,-72 190,-114 -70,-42 -133,-80 -190,-114 -130,-79 -227,-138 -306,-177zm-429 -205c18,-70 66,-128 130,-159l0 -315c-40,-19 -73,-48 -97,-84 -77,39 -172,97 -298,173 -102,62 -223,135 -369,219 -158,91 -276,156 -375,211 -45,24 -86,47 -123,68 37,20 78,43 123,67 95,53 207,114 354,199 110,-64 204,-121 285,-170 157,-95 272,-165 370,-209zm235 -934c107,0 198,69 230,165 99,44 215,114 375,211 101,61 220,133 366,217 134,78 263,148 371,208 87,48 162,89 225,126 65,-44 107,-83 132,-127 24,-41 37,-92 43,-162l-4 0c-7,-51 -19,-92 -39,-125 -55,-95 -188,-168 -454,-315l0 0c-100,-54 -218,-119 -375,-210 -63,-36 -120,-70 -174,-102 -41,-24 -79,-48 -115,-74 -35,20 -75,31 -118,31 -134,0 -242,-109 -242,-243 0,-96 56,-179 137,-218l0 -307c-81,-39 -137,-122 -137,-218 0,-96 56,-179 137,-218l0 -632c-169,-100 -269,-150 -358,-150 -88,0 -188,50 -357,150l0 632c80,40 135,122 135,218 0,95 -55,178 -135,217 1,111 4,221 1,310 80,39 134,122 134,216 0,134 -108,243 -242,243 -43,0 -83,-11 -118,-31 -51,36 -103,64 -150,96 -42,27 -89,52 -137,80 -158,91 -276,156 -375,210 -267,147 -400,220 -455,315 -19,33 -31,73 -39,125l-4 0c7,69 20,121 43,162 26,44 68,83 132,127 64,-37 138,-78 225,-126 109,-60 237,-130 372,-208 145,-84 265,-156 365,-217 160,-97 276,-167 376,-211 32,-96 122,-165 229,-165zm569 -618c81,40 137,123 137,218 0,18 -2,36 -6,52 31,21 68,44 116,70 49,27 99,59 155,91 134,77 263,148 371,208 185,101 313,171 403,244l0 -16c-3,-123 -6,-266 -6,-411l-1 0c-7,-51 -19,-92 -39,-125 -55,-95 -188,-168 -454,-315l0 0c-100,-54 -218,-119 -375,-210 -93,-53 -175,-102 -249,-147 -16,13 -33,25 -52,34l0 274 0 33zm-1269 273c-4,-17 -7,-36 -7,-55 0,-96 57,-179 139,-218 3,-86 -2,-192 -1,-307 -19,-9 -37,-20 -52,-33 -74,44 -156,93 -248,146 -158,91 -276,156 -375,210 -267,147 -400,220 -455,315 -19,33 -31,73 -39,125l0 0c-1,145 -4,288 -6,411l0 16c90,-73 218,-143 402,-244 109,-60 237,-131 372,-208 37,-22 72,-42 106,-62 51,-30 111,-59 164,-96zm1269 -1016c81,39 136,121 137,217 77,47 165,99 265,157 134,77 263,148 371,207 184,101 311,171 401,243 1,-25 1,-50 2,-74 6,-304 9,-456 -46,-551 -55,-95 -188,-168 -454,-315l0 0c-100,-54 -218,-119 -375,-210 -115,-66 -214,-126 -301,-178l0 504zm-1276 218c1,-97 57,-180 138,-219l0 -503c-87,52 -186,112 -300,178 -158,91 -276,156 -375,210 -267,147 -400,220 -455,315 -55,95 -52,247 -45,551 0,24 1,49 1,74 91,-72 218,-142 401,-243 109,-59 237,-130 372,-207 99,-58 186,-110 263,-156z"/>
 </g>
</svg>
