<?xml version="1.0" encoding="UTF-8"?>
<!DOCTYPE svg PUBLIC "-//W3C//DTD SVG 1.1//EN" "http://www.w3.org/Graphics/SVG/1.1/DTD/svg11.dtd">
<!-- Creator: CorelDRAW X7 -->
<svg xmlns="http://www.w3.org/2000/svg" xml:space="preserve" width="139.857mm" height="56.4016mm" version="1.1" style="shape-rendering:geometricPrecision; text-rendering:geometricPrecision; image-rendering:optimizeQuality; fill-rule:evenodd; clip-rule:evenodd"
viewBox="0 0 3195 1289"
 xmlns:xlink="http://www.w3.org/1999/xlink">
 <defs>
  <style type="text/css">
   <![CDATA[
    .fil0 {fill:#FEFEFE}
    .fil1 {fill:#FEFEFE;fill-rule:nonzero}
   ]]>
  </style>
 </defs>
 <g id="图层_x0020_1">
  <metadata id="CorelCorpID_0Corel-Layer"/>
  <path class="fil0" d="M3158 1048l0 -165 37 0 0 231 -61 0 -84 -176 0 175 -37 0 0 -231 65 0 80 166zm-168 -166l0 231 -53 0 0 -231 53 0zm-144 142l-35 -98 -34 98 69 0zm-81 34l-19 55 -36 0 79 -231 59 0 81 231 -52 0 -20 -55 -92 0zm-115 -51l-78 0 0 106 -52 0 0 -231 52 0 0 96 78 0 0 -96 52 0 0 231 -52 0 0 -106zm-147 93c0,2 -6,5 -18,9 -11,3 -26,6 -43,6 -40,0 -68,-10 -84,-30 -16,-21 -23,-52 -23,-95 0,-23 4,-43 10,-59 7,-15 17,-28 31,-36 15,-9 34,-14 59,-14 14,0 27,1 39,3 11,2 20,4 25,6l10 39c-5,-3 -12,-7 -23,-11 -11,-5 -25,-7 -40,-7 -21,0 -36,8 -43,23 -7,15 -11,33 -11,56 0,17 1,32 3,46 2,13 6,24 13,34 7,9 17,14 29,15 16,0 28,-2 39,-4 10,-3 17,-6 23,-10 5,-3 7,-5 7,-5 0,0 0,0 0,0l-3 34zm-178 -218l-72 92 85 139 -56 0 -59 -101 -20 26 0 75 -53 0 0 -231 53 0 0 109 84 -109 38 0zm-192 218c0,2 -6,5 -18,9 -12,3 -27,6 -44,6 -40,0 -68,-10 -83,-30 -16,-21 -24,-52 -24,-95 1,-23 4,-43 11,-59 6,-15 16,-28 31,-36 14,-9 34,-14 58,-14 15,0 28,1 39,3 12,2 20,4 25,6l10 39c-4,-3 -12,-7 -23,-11 -11,-5 -24,-7 -40,-7 -21,0 -35,8 -43,23 -7,15 -11,33 -11,56 0,17 1,32 3,46 2,13 7,24 13,34 7,9 17,14 30,15 15,0 28,-2 38,-4 10,-3 18,-6 23,-10 5,-3 8,-5 8,-5 0,0 0,0 0,0l-3 34zm-319 -103c0,27 3,48 8,63 5,15 16,23 34,23 13,0 23,-4 30,-12 6,-8 10,-18 12,-30 2,-12 3,-26 3,-43 0,-17 -1,-31 -3,-42 -1,-12 -5,-21 -11,-30 -7,-8 -16,-12 -29,-12 -19,0 -31,7 -36,22 -6,15 -8,36 -8,61zm43 -116c24,0 43,5 58,13 15,9 25,22 31,39 7,17 10,38 10,64 0,27 -3,49 -10,66 -7,18 -18,31 -33,39 -15,9 -34,13 -57,13 -22,0 -40,-4 -55,-12 -14,-9 -25,-22 -32,-39 -6,-17 -10,-40 -10,-67 0,-38 8,-67 24,-86 16,-20 41,-29 74,-30zm-213 203l112 0 0 29 -165 0 0 -231 53 0 0 202zm-116 -144c-2,-19 -13,-29 -34,-29l-48 0 0 67 46 0c24,0 36,-12 36,-38zm-32 144c24,0 37,-13 37,-40 0,-12 -4,-21 -11,-27 -7,-7 -17,-10 -27,-10l-49 0 0 77 50 0zm3 -202c45,0 68,19 68,55 0,22 -6,37 -19,44 -12,7 -22,10 -30,10 38,4 57,23 57,56 0,25 -7,43 -21,52 -13,9 -31,14 -53,14l-107 0 0 -231 105 0zm432 -551c0,55 -11,96 -33,126 -22,29 -50,48 -84,58 -35,9 -76,14 -123,14l-136 0 0 273 -151 0 0 -662 304 0c70,0 124,14 163,42 38,28 59,77 60,149zm-142 -4c-1,-33 -10,-59 -28,-77 -18,-19 -41,-28 -70,-28l-136 0 0 226 132 0c34,0 59,-9 76,-26 17,-17 26,-49 26,-95zm744 -187l-206 261 243 401 -160 0 -169 -292 -60 75 0 217 -150 0 0 -662 150 0 0 311 243 -311 109 0zm401 672c-77,0 -134,-12 -173,-36 -39,-23 -64,-51 -75,-84 -11,-33 -16,-71 -16,-112l0 -440 153 0 0 439c0,1 0,5 -1,11 0,7 0,12 0,17 0,78 43,116 129,116 80,0 119,-37 119,-113 0,-6 0,-13 0,-21 -1,-9 -1,-13 -1,-15l0 -434 126 0 0 434 0 32c0,137 -87,206 -261,206z"/>
  <path class="fil1" d="M869 144c40,23 79,44 111,62 89,49 134,73 158,116 25,43 24,94 22,196 -1,32 -2,71 -2,126l0 6 0 0 0 0c0,52 1,89 2,121 2,102 3,152 -22,195 -25,43 -69,68 -158,117 -32,18 -71,39 -111,62 -43,25 -79,46 -109,64 -87,53 -130,80 -180,80 -49,0 -92,-27 -180,-80 -30,-18 -65,-39 -108,-64 -40,-23 -79,-44 -111,-62 -89,-49 -134,-74 -158,-117 -25,-42 -24,-93 -22,-195 1,-32 1,-69 2,-121l0 0 0 0 0 -6c0,-55 -1,-94 -2,-126 -2,-102 -3,-153 22,-196 24,-43 69,-67 158,-116 32,-18 71,-39 111,-62 43,-25 78,-47 108,-65 88,-53 131,-79 180,-79 50,0 93,26 180,79 30,18 66,40 109,65zm-257 785c19,9 33,26 38,47 30,13 64,34 110,62 25,15 53,32 85,51 44,-25 77,-44 106,-59 13,-7 25,-14 36,-20 -11,-7 -23,-13 -36,-21l0 0c-30,-16 -65,-35 -112,-62 -43,-25 -79,-47 -110,-66 -37,-22 -65,-39 -88,-51 -8,11 -17,19 -29,25l0 94zm26 108c-13,18 -34,29 -58,29 -23,0 -44,-11 -57,-29 -24,12 -53,29 -91,53 -17,10 -36,21 -57,34 21,12 40,24 57,34 77,47 116,70 148,70 33,0 72,-23 149,-70 17,-10 36,-22 57,-34 -21,-13 -40,-24 -57,-34 -38,-24 -67,-41 -91,-53zm-127 -61c5,-21 19,-38 38,-47l0 -94c-12,-6 -22,-14 -29,-25 -23,12 -51,29 -88,51 -31,19 -67,41 -110,66 -47,27 -82,46 -112,62 -13,8 -25,14 -37,21 12,6 24,13 37,20 28,15 62,34 106,59 32,-19 60,-36 84,-51 47,-28 81,-49 111,-62zm69 -278c32,0 59,21 69,49 29,13 64,34 111,63 30,18 66,40 109,65 40,23 79,44 111,62 26,14 48,26 67,37 19,-13 32,-25 39,-38 7,-12 11,-27 13,-48l-1 0c-3,-15 -6,-27 -12,-37 -16,-28 -56,-50 -135,-94l0 0c-30,-16 -65,-35 -112,-62 -18,-11 -36,-21 -52,-31 -12,-7 -23,-14 -34,-22 -10,6 -22,9 -35,9 -40,0 -72,-32 -72,-72 0,-28 17,-53 41,-65l0 -91c-24,-12 -41,-36 -41,-65 0,-29 17,-53 41,-65l0 -188c-50,-30 -80,-45 -107,-45 -26,0 -56,15 -106,45l0 188c24,12 40,37 40,65 0,28 -16,53 -40,65 0,33 1,65 0,92 24,12 40,36 40,64 0,40 -32,72 -72,72 -13,0 -25,-3 -35,-9 -15,11 -30,19 -44,29 -13,8 -27,15 -41,24 -47,27 -82,46 -112,62 -79,44 -119,66 -135,94 -6,10 -10,22 -12,37l-1 0c2,21 6,36 13,48 7,13 20,25 39,38 19,-11 41,-23 67,-37 32,-18 71,-39 111,-62 43,-25 78,-47 108,-65 48,-29 82,-50 112,-63 10,-28 37,-49 68,-49zm170 -184c24,12 40,37 40,65 0,6 0,11 -1,16 9,6 20,13 34,20 15,8 30,18 46,27 40,24 79,45 111,62 55,31 93,51 120,73l0 -5c-1,-36 -2,-79 -2,-122l0 0c-3,-15 -6,-27 -12,-37 -16,-28 -56,-50 -135,-94l0 0c-30,-16 -65,-35 -112,-62 -27,-16 -52,-31 -74,-44 -4,4 -10,7 -15,10l0 82 0 9zm-378 82c-1,-6 -2,-11 -2,-17 0,-28 17,-53 41,-65 1,-25 0,-57 0,-91 -6,-3 -11,-6 -16,-10 -21,13 -46,28 -73,44 -47,27 -82,46 -112,62 -79,44 -119,66 -135,94 -6,10 -10,22 -12,37l0 0c0,43 -1,86 -2,122l0 5c27,-22 65,-42 120,-73 32,-17 71,-38 111,-62 11,-6 21,-12 31,-18 15,-9 33,-17 49,-28zm378 -303c24,12 40,36 40,65 24,14 50,29 79,46 40,23 79,44 111,62 54,30 92,51 119,72 0,-7 0,-14 1,-22 2,-90 2,-135 -14,-164 -16,-28 -56,-50 -135,-93l0 0c-30,-17 -65,-36 -112,-63 -34,-20 -63,-37 -89,-53l0 150zm-380 65c0,-29 17,-53 41,-65l0 -150c-26,16 -55,33 -89,53 -47,27 -82,46 -112,63 -79,43 -119,65 -135,93 -17,29 -16,74 -14,164 0,8 1,15 1,23 27,-22 64,-43 119,-73 32,-18 71,-39 111,-62 29,-17 55,-32 78,-46z"/>
 </g>
</svg>
