<?xml version="1.0" encoding="UTF-8"?>
<!DOCTYPE svg PUBLIC "-//W3C//DTD SVG 1.1//EN" "http://www.w3.org/Graphics/SVG/1.1/DTD/svg11.dtd">
<!-- Creator: CorelDRAW X7 -->
<svg xmlns="http://www.w3.org/2000/svg" xml:space="preserve" width="47.7714mm" height="59.3897mm" version="1.1" style="shape-rendering:geometricPrecision; text-rendering:geometricPrecision; image-rendering:optimizeQuality; fill-rule:evenodd; clip-rule:evenodd"
viewBox="0 0 406 505"
 xmlns:xlink="http://www.w3.org/1999/xlink">
 <defs>
  <style type="text/css">
   <![CDATA[
    .fil0 {fill:#FEFEFE}
    .fil1 {fill:#FEFEFE;fill-rule:nonzero}
   ]]>
  </style>
 </defs>
 <g id="图层_x0020_1">
  <metadata id="CorelCorpID_0Corel-Layer"/>
  <g id="_667557920">
   <path class="fil0" d="M399 493l0 -28 7 0 0 39 -11 0 -14 -30 0 30 -6 0 0 -39 11 0 13 28zm-28 -28l0 39 -9 0 0 -39 9 0zm-25 24l-6 -17 -5 17 11 0zm-13 6l-4 9 -6 0 14 -39 10 0 14 39 -9 0 -4 -9 -15 0zm-20 -9l-13 0 0 18 -9 0 0 -39 9 0 0 16 13 0 0 -16 9 0 0 39 -9 0 0 -18zm-25 16c0,0 -1,1 -3,1 -2,1 -4,1 -7,1 -7,0 -12,-1 -14,-5 -3,-3 -5,-9 -5,-16 1,-4 1,-7 2,-10 1,-3 3,-5 6,-6 2,-2 5,-2 9,-2 3,0 5,0 7,0 2,0 4,1 4,1l2 7c-1,-1 -2,-1 -4,-2 -2,-1 -4,-1 -7,-1 -3,0 -6,1 -7,3 -1,3 -2,6 -2,10 0,3 0,6 1,8 0,2 1,4 2,6 1,1 3,2 5,2 3,0 5,0 6,-1 2,0 4,-1 4,-1 1,-1 2,-1 2,-1 0,0 0,0 0,0l-1 6zm-30 -37l-12 15 14 24 -9 0 -10 -17 -4 4 0 13 -9 0 0 -39 9 0 0 18 14 -18 7 0zm-33 37c0,0 -1,1 -3,1 -2,1 -4,1 -7,1 -7,0 -12,-1 -14,-5 -3,-3 -5,-9 -5,-16 1,-4 1,-7 2,-10 1,-3 3,-5 6,-6 2,-2 5,-2 9,-2 3,0 5,0 7,0 2,0 4,1 4,1l2 7c-1,-1 -2,-1 -4,-2 -2,-1 -4,-1 -7,-1 -3,0 -6,1 -7,3 -1,3 -2,6 -2,10 0,3 0,6 1,8 0,2 1,4 2,6 1,1 3,2 5,2 3,0 5,0 6,-1 2,0 3,-1 4,-1 1,-1 2,-1 2,-1 0,0 0,0 0,0l-1 6zm-54 -18c0,5 1,8 1,11 1,3 3,4 6,4 2,0 4,-1 5,-2 1,-2 2,-3 2,-5 1,-2 1,-5 1,-8 0,-2 0,-5 -1,-7 0,-2 -1,-3 -2,-5 -1,-1 -2,-2 -5,-2 -3,0 -5,1 -6,4 -1,2 -1,6 -1,10zm7 -19c4,0 8,0 10,2 3,1 4,3 6,6 1,3 1,7 1,11 0,5 0,9 -2,12 -1,3 -3,5 -5,6 -3,2 -6,2 -10,2 -4,0 -7,0 -9,-2 -3,-1 -4,-3 -6,-6 -1,-3 -1,-7 -1,-12 0,-6 1,-11 4,-14 2,-4 7,-5 12,-5zm-36 34l19 0 0 5 -28 0 0 -39 9 0 0 34zm-20 -24c0,-4 -2,-5 -6,-5l-8 0 0 11 8 0c4,0 6,-2 6,-6zm-5 24c4,0 6,-2 6,-7 0,-2 -1,-3 -2,-4 -1,-1 -3,-2 -4,-2l-9 0 0 13 9 0zm0 -34c8,0 12,3 12,9 0,4 -1,6 -3,7 -2,2 -4,2 -5,2 6,1 9,4 9,10 0,4 -1,7 -3,9 -2,1 -6,2 -9,2l-19 0 0 -39 18 0z"/>
   <path class="fil0" d="M82 505c-5,0 -8,-1 -11,-3 -2,-1 -4,-3 -4,-5 -1,-1 -1,-4 -1,-6l0 -26 9 0 0 26c0,0 0,0 0,0 0,1 0,1 0,1 0,5 2,7 8,7 4,0 7,-2 7,-6 0,-1 0,-1 0,-2 0,0 0,0 0,0l0 -26 7 0 0 26 0 1c0,8 -5,13 -15,13zm-19 -40l-12 15 14 24 -9 0 -10 -17 -4 4 0 13 -9 0 0 -39 9 0 0 18 15 -18 6 0zm-40 11c0,-2 -1,-4 -2,-5 -1,-1 -2,-1 -4,-1l-8 0 0 13 8 0c2,0 3,0 4,-2 1,-1 2,-2 2,-5zm8 0c0,3 0,6 -2,8 -1,1 -3,2 -5,3 -2,1 -4,1 -7,1l-8 0 0 16 -9 0 0 -39 18 0c4,0 7,1 10,2 2,2 3,5 3,9z"/>
  </g>
  <path class="fil1" d="M299 48c13,7 26,14 36,20 30,16 44,24 53,39 8,14 8,31 7,64 0,11 -1,24 -1,42l0 2 0 0 0 0c0,18 1,30 1,40 1,34 1,51 -7,65 -9,14 -23,22 -53,39 -10,5 -23,12 -36,20 -15,8 -27,16 -36,22 -29,17 -44,26 -60,26 -16,0 -31,-9 -60,-26 -10,-6 -21,-14 -36,-22 -13,-8 -26,-15 -36,-20 -30,-17 -45,-25 -53,-39 -8,-14 -8,-31 -7,-65 0,-10 1,-22 1,-40l0 0 0 0 0 -2c0,-18 -1,-31 -1,-42 -1,-33 -1,-50 7,-64 8,-15 23,-23 53,-39 10,-6 23,-13 36,-20 15,-9 26,-16 36,-22 29,-17 44,-26 60,-26 16,0 31,9 60,26 9,6 21,13 36,22zm-86 260c7,3 11,8 13,15 10,5 21,12 37,21 8,5 17,10 28,17 14,-9 25,-15 35,-20 4,-2 8,-5 12,-7 -4,-2 -8,-4 -12,-6l0 0c-10,-6 -22,-12 -37,-21 -15,-8 -27,-16 -37,-22 -12,-7 -22,-13 -29,-17 -3,4 -6,7 -10,9l0 31zm9 35c-4,6 -11,10 -19,10 -8,0 -15,-4 -19,-10 -8,4 -18,10 -30,18 -6,3 -12,7 -19,11 7,4 13,8 19,11 25,16 38,24 49,24 11,0 24,-8 49,-24 6,-3 12,-7 19,-11 -7,-4 -13,-8 -19,-11 -13,-8 -22,-14 -30,-18zm-42 -20c2,-7 6,-12 13,-15l0 -31c-4,-2 -8,-5 -10,-9 -8,4 -17,10 -29,17 -10,6 -22,14 -37,22 -15,9 -27,15 -37,21 -4,2 -8,4 -12,6 4,2 8,5 12,7 10,5 21,11 35,20 11,-7 20,-12 28,-17 16,-9 27,-16 37,-21zm23 -92c10,0 19,7 23,16 9,5 21,12 37,21 9,6 21,13 36,22 13,7 26,14 36,20 9,5 16,9 22,13 7,-5 11,-9 13,-13 3,-4 4,-9 5,-16l-1 0c-1,-5 -2,-9 -4,-12 -5,-10 -18,-17 -44,-31l0 0c-10,-6 -22,-12 -37,-21 -7,-3 -12,-7 -18,-10 -4,-2 -7,-5 -11,-7 -3,2 -7,3 -11,3 -14,0 -24,-11 -24,-24 0,-10 5,-18 13,-22l0 -30c-8,-4 -13,-12 -13,-21 0,-10 5,-18 13,-22l0 -62c-16,-10 -26,-15 -35,-15 -9,0 -19,5 -35,15l0 62c8,4 13,12 13,22 0,9 -5,17 -13,21 0,11 0,22 0,30 8,4 13,13 13,22 0,13 -11,24 -24,24 -4,0 -8,-1 -11,-3 -5,3 -11,6 -15,9 -4,3 -9,5 -14,8 -15,9 -27,15 -37,21 -26,14 -39,21 -45,31 -1,3 -3,7 -3,12l-1 0c1,7 2,12 4,16 3,4 7,8 13,13 7,-4 14,-8 23,-13 10,-6 23,-13 36,-20 15,-9 26,-16 36,-22 16,-9 27,-16 37,-21 3,-9 12,-16 23,-16zm56 -61c8,4 13,12 13,22 0,2 0,3 0,5 3,2 7,4 11,7 5,2 10,6 16,9 13,7 26,14 36,20 18,10 31,17 40,24l0 -1c0,-12 -1,-26 -1,-41l0 0c-1,-5 -2,-9 -4,-12 -5,-9 -18,-17 -44,-31l0 0c-10,-5 -22,-12 -37,-21 -9,-5 -18,-10 -25,-14 -1,1 -3,2 -5,3l0 27 0 3zm-125 27c-1,-1 -1,-3 -1,-5 0,-10 6,-18 14,-22 0,-8 0,-19 0,-30 -2,-1 -4,-2 -5,-3 -8,4 -16,9 -25,14 -15,9 -27,16 -37,21 -26,14 -39,22 -45,31 -1,3 -3,7 -3,12l0 0c0,15 -1,29 -1,41l0 1c9,-7 21,-14 40,-24 10,-6 23,-13 36,-20 4,-2 7,-4 11,-6 5,-3 11,-6 16,-10zm125 -100c8,4 13,12 13,21 8,5 17,10 27,16 13,8 26,15 36,20 18,10 31,17 40,24 0,-2 0,-5 0,-7 1,-30 1,-45 -5,-54 -5,-10 -18,-17 -44,-31l0 0c-10,-6 -22,-12 -37,-21 -12,-7 -21,-12 -30,-18l0 50zm-126 22c0,-10 6,-18 14,-22l0 -50c-9,6 -18,11 -30,18 -15,9 -27,15 -37,21 -26,14 -39,21 -45,31 -5,9 -5,24 -4,54 0,2 0,5 0,7 9,-7 22,-14 40,-24 10,-5 23,-12 36,-20 10,-6 19,-11 26,-15z"/>
 </g>
</svg>
