<?xml version="1.0" encoding="UTF-8"?>
<!DOCTYPE svg PUBLIC "-//W3C//DTD SVG 1.1//EN" "http://www.w3.org/Graphics/SVG/1.1/DTD/svg11.dtd">
<!-- Creator: CorelDRAW X7 -->
<svg xmlns="http://www.w3.org/2000/svg" xml:space="preserve" width="47.7714mm" height="59.3897mm" version="1.1" style="shape-rendering:geometricPrecision; text-rendering:geometricPrecision; image-rendering:optimizeQuality; fill-rule:evenodd; clip-rule:evenodd"
viewBox="0 0 1220 1517"
 xmlns:xlink="http://www.w3.org/1999/xlink">
 <defs>
  <style type="text/css">
   <![CDATA[
    .fil0 {fill:#973033}
    .fil1 {fill:#973033;fill-rule:nonzero}
   ]]>
  </style>
 </defs>
 <g id="图层_x0020_1">
  <metadata id="CorelCorpID_0Corel-Layer"/>
  <g id="_658992480">
   <path class="fil0" d="M1201 1482l0 -84 19 0 0 118 -31 0 -43 -90 0 89 -19 0 0 -117 33 0 41 84zm-86 -84l0 117 -27 0 0 -117 27 0zm-73 72l-18 -50 -18 50 36 0zm-42 17l-9 28 -19 0 41 -117 30 0 41 117 -26 0 -11 -28 -47 0zm-59 -26l-39 0 0 54 -27 0 0 -117 27 0 0 49 39 0 0 -49 27 0 0 117 -27 0 0 -54zm-74 48c0,1 -4,2 -10,4 -6,2 -13,3 -22,3 -20,0 -35,-5 -43,-15 -8,-10 -12,-27 -12,-49 1,-11 3,-21 6,-29 3,-8 8,-15 16,-19 7,-5 17,-7 29,-7 8,0 15,0 21,1 5,2 10,3 12,3l5 20c-2,-1 -6,-3 -11,-5 -6,-3 -13,-4 -21,-4 -11,0 -18,4 -22,12 -4,7 -5,17 -5,28 0,9 0,17 1,24 1,7 3,12 7,17 3,5 8,8 15,8 8,0 14,-1 19,-2 6,-2 10,-3 12,-5 3,-2 4,-3 4,-3 0,0 0,0 0,0l-1 18zm-91 -111l-37 46 43 71 -29 0 -30 -51 -10 13 0 38 -27 0 0 -117 27 0 0 55 43 -55 20 0zm-99 111c0,1 -3,2 -9,4 -6,2 -14,3 -22,3 -21,0 -35,-5 -43,-15 -8,-10 -12,-27 -12,-49 0,-11 2,-21 5,-29 3,-8 9,-15 16,-19 8,-5 17,-7 30,-7 7,0 14,0 20,1 6,2 10,3 13,3l5 20c-2,-1 -6,-3 -12,-5 -6,-3 -12,-4 -20,-4 -11,0 -19,4 -22,12 -4,7 -6,17 -6,28 0,9 1,17 2,24 1,7 3,12 6,17 4,5 9,8 15,8 8,0 15,-1 20,-2 5,-2 9,-3 12,-5 2,-2 4,-3 4,-3 0,0 0,0 0,0l-2 18zm-163 -53c0,14 2,25 4,32 3,8 9,12 18,12 6,0 11,-2 15,-6 3,-4 5,-9 6,-15 1,-6 1,-14 1,-22 0,-9 0,-16 -1,-22 0,-6 -3,-11 -6,-15 -3,-4 -8,-6 -15,-7 -9,0 -15,4 -18,12 -3,8 -4,18 -4,31zm22 -59c12,0 22,2 30,7 7,4 13,11 16,19 3,9 5,20 5,33 0,14 -2,25 -6,34 -3,9 -9,16 -16,20 -8,4 -17,6 -29,6 -12,0 -21,-2 -28,-6 -8,-4 -13,-11 -17,-20 -3,-9 -5,-20 -5,-34 0,-20 4,-34 12,-44 9,-10 21,-15 38,-15zm-109 104l57 0 0 14 -84 0 0 -117 27 0 0 103zm-59 -74c-1,-10 -7,-15 -18,-15l-24 0 0 35 23 0c13,0 19,-7 19,-20zm-17 74c13,0 19,-7 19,-21 0,-6 -2,-10 -5,-14 -4,-3 -9,-5 -14,-5l-25 0 0 40 25 0zm2 -103c23,0 35,9 35,28 0,11 -3,18 -10,22 -6,3 -11,5 -15,5 19,2 29,12 29,29 0,13 -4,22 -11,26 -7,5 -16,7 -27,7l-55 0 0 -117 54 0z"/>
   <path class="fil0" d="M245 1517c-14,0 -24,-2 -31,-6 -7,-4 -11,-9 -13,-15 -2,-6 -3,-13 -3,-20l0 -78 27 0 0 78c0,0 0,1 0,2 0,1 0,2 0,3 0,14 8,21 23,21 14,0 21,-7 21,-21 0,-1 0,-2 0,-4 0,-1 0,-2 0,-2l0 -77 23 0 0 77 0 6c0,24 -16,36 -47,36zm-55 -119l-37 46 43 71 -28 0 -30 -51 -11 13 0 38 -27 0 0 -117 27 0 0 55 43 -55 20 0zm-121 33c-1,-6 -2,-11 -5,-14 -4,-3 -8,-5 -13,-5l-24 0 0 40 23 0c6,0 11,-1 14,-4 3,-3 5,-9 5,-17zm25 1c0,9 -2,17 -6,22 -4,5 -9,9 -15,10 -6,2 -13,3 -22,3l-24 0 0 48 -27 0 0 -117 54 0c13,0 22,2 29,7 7,5 11,14 11,27z"/>
  </g>
  <path class="fil1" d="M898 143c40,23 78,44 110,62 89,49 133,73 158,116 24,43 23,93 21,194 0,33 -1,72 -1,127l0 5 0 0 0 0c0,52 1,89 1,121 2,101 3,152 -21,194 -25,43 -69,68 -158,116 -32,18 -70,39 -110,62 -43,25 -79,46 -109,64 -86,53 -130,79 -179,79 -49,0 -92,-26 -179,-79 -30,-18 -65,-39 -108,-64 -40,-23 -78,-44 -111,-62 -88,-48 -133,-73 -157,-116 -25,-42 -24,-93 -22,-194 1,-32 2,-69 2,-121l0 0 0 0 0 -5c0,-55 -1,-94 -2,-127 -2,-101 -3,-151 22,-194 24,-43 69,-67 157,-116 33,-18 71,-39 111,-62 43,-25 78,-46 108,-64 87,-53 130,-79 179,-79 49,0 93,26 179,79 30,18 66,39 109,64zm-257 782c19,9 34,26 39,47 29,13 63,34 109,62 25,15 52,31 85,51 44,-26 77,-44 105,-59 13,-8 25,-14 36,-20 -11,-7 -23,-13 -36,-21l0 0c-29,-16 -64,-35 -111,-62 -43,-25 -79,-47 -110,-65 -37,-23 -65,-40 -88,-51 -7,10 -17,19 -29,25l0 93zm27 108c-13,17 -34,29 -58,29 -23,0 -44,-12 -57,-29 -24,11 -53,29 -91,52 -17,11 -36,22 -56,34 20,13 39,24 56,34 77,47 115,70 148,70 33,0 71,-23 148,-70 17,-10 36,-21 57,-34 -21,-12 -40,-23 -57,-34 -38,-23 -67,-41 -90,-52zm-127 -61c5,-21 19,-38 38,-47l0 -93c-12,-6 -22,-15 -29,-25 -23,11 -51,28 -88,51 -30,18 -66,40 -110,65 -46,27 -81,46 -111,62 -13,8 -25,14 -36,21 11,6 23,12 36,20 29,15 62,33 105,59 33,-20 61,-36 85,-51 46,-28 80,-49 110,-62zm69 -277c32,0 59,21 68,49 30,13 64,34 111,63 30,18 66,39 109,64 40,23 78,44 110,62 26,14 48,26 67,37 19,-13 31,-25 39,-38 7,-12 11,-27 13,-48l-2 0c-2,-15 -6,-27 -11,-37 -16,-28 -56,-49 -135,-93l0 0c-29,-16 -64,-35 -111,-62 -19,-11 -36,-21 -52,-30 -12,-8 -23,-15 -34,-22 -10,5 -22,9 -35,9 -39,0 -71,-32 -71,-72 0,-29 16,-53 40,-65l0 -91c-24,-11 -40,-36 -40,-64 0,-29 16,-54 40,-65l0 -187c-50,-30 -80,-45 -106,-45 -26,0 -56,15 -106,45l0 187c24,12 40,36 40,65 0,28 -16,52 -40,64 1,33 2,65 1,92 23,11 39,36 39,64 0,40 -32,72 -71,72 -13,0 -25,-4 -35,-9 -15,10 -31,19 -45,28 -12,8 -26,15 -41,24 -46,27 -81,46 -111,62 -79,44 -118,65 -134,93 -6,10 -10,22 -12,37l-1 0c2,21 6,36 13,48 7,13 20,25 39,38 19,-11 41,-23 66,-37 33,-18 71,-39 111,-62 43,-25 78,-46 108,-64 47,-29 82,-50 111,-63 10,-28 37,-49 68,-49zm169 -183c24,12 40,37 40,65 0,5 0,10 -1,15 9,6 20,13 34,21 14,8 29,17 46,27 40,23 78,44 110,61 55,31 93,51 119,73l0 -5c-1,-36 -1,-79 -2,-122l0 0c-2,-15 -6,-27 -11,-37 -16,-28 -56,-50 -135,-93l0 0c-29,-16 -64,-35 -111,-62 -27,-16 -52,-31 -74,-44 -4,4 -10,7 -15,10l0 81 0 10zm-376 81c-2,-5 -2,-10 -2,-16 0,-29 16,-53 41,-65 1,-25 -1,-57 -1,-91 -5,-2 -10,-6 -15,-10 -22,13 -46,28 -74,44 -46,27 -81,46 -111,62 -79,43 -118,65 -134,93 -6,10 -10,22 -12,37l0 0c0,43 -1,86 -2,122l0 5c27,-22 65,-42 119,-73 33,-17 71,-38 111,-61 10,-7 21,-13 31,-18 15,-9 33,-18 49,-29zm376 -301c24,12 40,36 40,64 23,14 49,30 79,47 40,23 78,44 110,61 54,30 92,51 119,72 0,-7 0,-15 0,-22 2,-90 3,-135 -13,-163 -16,-28 -56,-50 -135,-93l0 0c-29,-17 -64,-36 -111,-63 -34,-19 -63,-37 -89,-52l0 149zm-378 64c0,-28 16,-53 41,-64l0 -149c-26,15 -56,33 -90,52 -46,27 -81,46 -111,63 -79,43 -118,65 -134,93 -17,28 -16,73 -14,163 0,7 0,15 1,22 26,-21 64,-42 118,-72 33,-17 71,-38 111,-61 29,-17 55,-33 78,-47z"/>
 </g>
</svg>
