<?xml version="1.0" encoding="UTF-8"?>
<!DOCTYPE svg PUBLIC "-//W3C//DTD SVG 1.1//EN" "http://www.w3.org/Graphics/SVG/1.1/DTD/svg11.dtd">
<!-- Creator: CorelDRAW X7 -->
<svg xmlns="http://www.w3.org/2000/svg" xml:space="preserve" width="153.721mm" height="43.3762mm" version="1.1" style="shape-rendering:geometricPrecision; text-rendering:geometricPrecision; image-rendering:optimizeQuality; fill-rule:evenodd; clip-rule:evenodd"
viewBox="0 0 37302 10526"
 xmlns:xlink="http://www.w3.org/1999/xlink">
 <defs>
  <style type="text/css">
   <![CDATA[
    .fil0 {fill:#973033;fill-rule:nonzero}
   ]]>
  </style>
 </defs>
 <g id="图层_x0020_1">
  <metadata id="CorelCorpID_0Corel-Layer"/>
  <path class="fil0" d="M3023 2924c0,-234 137,-436 335,-531l0 -1224c-211,128 -452,272 -731,433 -382,221 -669,378 -911,511 -648,357 -973,535 -1105,764 -134,232 -126,602 -111,1341 2,59 3,119 4,181 220,-176 529,-346 975,-591 264,-145 576,-317 903,-505 241,-140 453,-266 641,-379zm3101 -530c196,96 331,296 332,528 189,114 402,241 645,381 326,188 639,360 903,505 446,245 755,415 974,591 2,-62 3,-123 4,-181 16,-739 24,-1108 -110,-1340 -134,-231 -458,-409 -1106,-765l0 0c-242,-133 -528,-290 -911,-511 -278,-161 -520,-305 -731,-433l0 1225zm-3086 2471c-10,-42 -15,-87 -15,-133 0,-235 137,-437 336,-532 8,-209 -3,-466 -3,-745 -45,-22 -87,-49 -126,-82 -179,108 -379,227 -603,356 -382,221 -669,378 -911,511 -648,357 -973,535 -1105,765 -47,81 -77,179 -94,304l-2 0c-1,353 -8,702 -15,999l0 40c219,-177 530,-348 979,-595 264,-145 576,-316 903,-505 90,-52 176,-102 257,-150 124,-73 272,-144 399,-233zm3086 -663c197,95 332,297 332,530 0,43 -4,85 -13,126 74,51 166,106 280,169 120,66 243,143 378,221 326,188 639,360 903,505 449,247 759,418 979,594l-1 -39c-6,-297 -14,-646 -14,-999l-2 0c-18,-125 -47,-222 -94,-303 -134,-232 -458,-410 -1106,-766l0 0c-242,-133 -528,-290 -911,-511 -224,-130 -425,-249 -605,-357 -38,33 -80,60 -126,83l0 666 0 81zm-1383 1500c260,0 480,168 559,401 241,107 524,278 912,513 245,149 535,325 889,529 326,188 639,360 903,505 211,117 392,216 547,307 157,-107 259,-202 321,-309 57,-99 89,-225 104,-394l-10 0c-18,-124 -47,-222 -94,-303 -134,-231 -458,-409 -1106,-765l0 0c-242,-133 -528,-291 -911,-512 -151,-87 -292,-170 -423,-248 -99,-59 -192,-118 -278,-179 -85,47 -183,74 -287,74 -325,0 -589,-263 -589,-589 0,-233 136,-435 333,-531l0 -746c-197,-95 -333,-297 -333,-531 0,-233 136,-435 333,-530l0 -1535c-411,-243 -655,-365 -870,-365 -214,0 -459,122 -869,365l0 1536c195,96 329,297 329,529 0,232 -134,433 -328,529 3,270 10,537 3,752 193,97 325,296 325,527 0,326 -263,589 -589,589 -104,0 -202,-27 -287,-74 -122,86 -249,156 -363,232 -102,67 -217,127 -335,195 -382,221 -669,379 -911,512 -648,356 -973,534 -1105,764 -47,81 -77,179 -94,304l-11 0c16,169 47,294 105,393 61,107 164,203 320,310 155,-91 336,-191 548,-307 264,-145 576,-317 903,-505 354,-204 644,-380 889,-529 388,-235 670,-406 912,-513 78,-233 299,-401 558,-401zm-571 2272c43,-170 160,-311 314,-386l0 -766c-95,-46 -176,-118 -234,-205 -188,95 -419,235 -724,420 -249,151 -544,329 -899,534 -382,221 -669,378 -911,511 -109,60 -208,115 -299,166 91,50 190,105 299,165 232,127 504,277 862,483 267,-157 495,-295 693,-415 381,-231 660,-400 899,-507zm1043 497c-107,144 -279,237 -472,237 -193,0 -364,-93 -472,-237 -191,96 -428,239 -743,431 -139,84 -292,177 -462,278 170,101 323,194 462,278 631,383 946,574 1215,574 269,0 585,-191 1216,-574 139,-84 292,-177 462,-278 -170,-101 -323,-194 -462,-278 -316,-192 -553,-335 -744,-431zm-215 -883c155,75 272,216 314,386 239,107 518,276 900,507 198,120 426,258 692,415 358,-206 631,-356 862,-483 109,-60 208,-115 299,-165 -91,-51 -190,-106 -299,-166l0 0c-242,-133 -528,-290 -911,-511 -355,-205 -649,-383 -898,-534 -305,-185 -536,-325 -724,-420 -59,87 -140,159 -235,205l0 766zm2103 -6413c326,189 639,361 903,506 728,400 1092,600 1294,950 202,350 194,766 176,1597 -6,268 -12,585 -12,1035l0 42 0 4 0 0c0,426 7,730 12,989 18,830 26,1245 -176,1595 -203,352 -567,552 -1294,952 -264,145 -577,317 -903,505 -354,204 -644,380 -889,529 -712,431 -1068,647 -1471,647 -402,0 -758,-216 -1470,-647 -245,-149 -535,-325 -889,-529 -327,-188 -639,-360 -903,-505 -728,-400 -1093,-600 -1295,-951 -202,-350 -193,-765 -176,-1596 6,-259 12,-563 13,-989l-1 0 1 -3 0 -43c0,-450 -7,-767 -13,-1035 -17,-830 -26,-1246 176,-1596 203,-351 567,-551 1295,-951 264,-145 576,-317 903,-506 354,-204 644,-380 889,-528 712,-431 1068,-647 1470,-647 403,0 759,216 1471,647 245,148 535,324 889,528z"/>
  <path class="fil0" d="M15777 3789c-7,-347 -103,-613 -288,-801 -186,-188 -426,-283 -724,-283l-1407 0 0 2331 1363 0c350,0 611,-91 790,-269 178,-179 266,-506 266,-978zm1466 44c0,560 -112,990 -337,1293 -227,301 -518,501 -875,599 -357,97 -779,146 -1268,146l-1405 0 0 2815 -1554 0 0 -6832 3137 0c719,0 1278,144 1679,433 401,288 608,804 623,1546zm5225 -281c-49,-564 -386,-847 -1009,-847l-1410 0 0 1993 1364 0c703,0 1055,-381 1055,-1146zm-938 4284c723,0 1085,-396 1085,-1185 0,-352 -108,-626 -320,-816 -213,-191 -484,-286 -807,-286l-1439 0 0 2287 1481 0zm102 -5982c1330,0 1994,543 1994,1628 0,647 -181,1075 -545,1282 -364,211 -667,316 -906,316 1134,110 1701,657 1701,1642 -13,760 -218,1278 -619,1554 -398,273 -926,410 -1581,410l-3181 0 0 -6832 3137 0zm7195 4208l-1043 -2918 -997 2918 2040 0zm-2407 997l-557 1627 -1070 0 2363 -6832 1742 0 2404 6832 -1554 0 -601 -1627 -2727 0zm7275 -3533c0,259 218,456 648,588 430,132 865,255 1302,367 440,112 821,305 1149,581 327,277 496,699 508,1266 0,565 -95,1017 -283,1361 -189,342 -453,594 -792,753 -340,159 -755,254 -1241,288 -118,10 -284,15 -496,15 -357,0 -692,-27 -1010,-78 -315,-54 -576,-110 -782,-174 -205,-63 -307,-102 -307,-115l-264 -1041c2,0 107,44 317,135 210,90 462,176 758,251 295,76 620,120 980,130 576,0 965,-95 1165,-281 198,-188 298,-472 298,-850 0,-452 -134,-748 -405,-890 -269,-142 -706,-278 -1315,-408 -608,-132 -1065,-320 -1371,-567 -305,-247 -457,-681 -457,-1305 15,-395 125,-723 333,-979 207,-259 481,-450 818,-575 337,-127 716,-198 1136,-217 699,0 1247,39 1645,120 396,80 660,146 789,202l281 1100c0,0 -98,-44 -288,-130 -191,-85 -435,-163 -733,-234 -298,-71 -653,-105 -1063,-105 -398,0 -711,49 -938,144 -228,95 -355,310 -382,648z"/>
 </g>
</svg>
