<?xml version="1.0" standalone="no"?><!DOCTYPE svg PUBLIC "-//W3C//DTD SVG 1.1//EN" "http://www.w3.org/Graphics/SVG/1.1/DTD/svg11.dtd"><svg height="1024" node-id="1" sillyvg="true" template-height="1024" template-width="1024" version="1.1" viewBox="0 0 1024 1024" width="1024" xmlns="http://www.w3.org/2000/svg" xmlns:xlink="http://www.w3.org/1999/xlink"><defs node-id="45"></defs><path d="M 440.60 565.30 L 424.70 564.70 L 392.70 565.10 L 287.90 565.10 L 264.40 565.50 L 246.30 565.00 L 241.60 564.40 L 236.90 563.40 L 232.50 561.70 L 228.40 559.50 L 224.60 556.70 L 222.00 554.30 L 218.10 549.40 L 215.60 543.90 L 214.70 541.00 L 213.80 536.40 L 213.20 531.30 L 207.10 445.20 L 201.50 359.10 L 190.90 189.80 L 190.50 181.90 L 190.60 174.10 L 191.60 166.50 L 192.60 162.70 L 194.00 159.00 L 195.90 155.70 L 198.20 152.60 L 200.90 150.00 L 203.90 147.90 L 207.00 146.20 L 213.90 144.00 L 223.00 142.60 L 279.10 140.60 L 329.90 139.50 L 493.30 138.00 L 605.90 137.90 L 780.80 138.70 L 793.10 139.40 L 797.00 140.10 L 800.80 141.30 L 803.20 142.40 L 807.60 145.50 L 809.70 147.90 L 811.60 150.60 L 813.20 153.60 L 815.10 158.30 L 816.50 163.30 L 818.20 173.10 L 819.90 190.60 L 823.70 306.10 L 832.40 517.90 L 832.20 529.70 L 831.00 537.40 L 829.80 541.10 L 828.30 544.60 L 826.20 547.90 L 823.60 551.00 L 820.30 553.90 L 816.60 556.30 L 812.60 558.40 L 808.40 560.00 L 799.80 562.20 L 792.40 563.10 L 784.90 563.40 L 664.00 563.80 L 594.20 564.90 L 596.40 578.20 L 596.20 582.50 L 595.70 584.30 L 593.70 587.00 L 592.40 587.80 L 587.90 589.80 L 599.60 795.30 L 599.10 801.40 L 597.10 803.80 L 596.60 806.90 L 598.10 833.60 L 599.80 846.70 L 600.00 850.60 L 602.20 852.80 L 611.60 859.60 L 614.80 863.30 L 616.60 867.40 L 616.50 871.40 L 615.80 873.70 L 613.90 875.20 L 612.50 875.50 L 598.90 876.70 L 574.60 877.40 L 564.90 877.20 L 560.00 876.60 L 558.80 875.20 L 557.80 871.70 L 558.00 870.10 L 559.70 865.70 L 560.10 861.40 L 559.50 853.30 L 557.00 838.80 L 547.40 837.40 L 542.70 836.20 L 538.20 834.60 L 539.20 785.10 L 540.90 760.20 L 541.00 754.00 L 540.70 747.90 L 540.00 741.30 L 535.00 715.00 L 534.00 708.40 L 523.70 760.60 L 513.00 820.30 L 509.60 842.40 L 508.10 858.50 L 508.30 869.50 L 508.00 872.20 L 507.30 874.60 L 503.30 875.50 L 499.00 875.60 L 484.00 875.00 L 452.60 872.70 L 448.20 872.00 L 447.30 871.10 L 446.80 869.80 L 446.80 867.70 L 447.40 865.60 L 449.60 861.80 L 461.00 851.50 L 462.40 848.60 L 463.70 846.90 L 468.30 846.40 L 469.00 806.30 L 468.90 802.80 L 466.70 799.50 L 466.30 798.00 L 465.60 789.40 L 463.20 724.10 L 462.20 677.10 L 462.00 630.10 L 462.60 583.10 L 458.60 580.80 L 454.70 578.00 L 451.00 575.00 L 440.60 565.30 Z M 471.80 850.00 L 475.50 851.50 L 479.20 852.60 L 486.70 853.50 L 494.30 852.90 L 500.00 851.80 L 505.60 850.10 L 506.40 845.50 L 506.90 837.10 L 508.10 828.70 L 512.30 804.40 L 505.90 805.70 L 499.10 806.50 L 490.00 806.80 L 481.00 805.90 L 472.50 803.50 L 471.30 834.50 L 471.80 850.00 Z M 562.80 852.20 L 574.10 853.40 L 579.90 853.70 L 585.60 853.40 L 589.30 852.80 L 592.90 851.80 L 596.50 850.50 L 594.70 828.90 L 593.30 807.40 L 592.80 804.70 L 592.10 804.40 L 575.80 806.40 L 570.40 806.60 L 558.80 806.20 L 556.20 806.90 L 560.60 841.80 L 562.80 852.20 Z M 541.70 832.60 L 552.90 835.10 L 556.40 835.20 L 552.70 807.90 L 550.20 793.40 L 547.20 778.00 L 543.50 764.10 L 541.70 809.80 L 541.70 832.60 Z M 501.50 409.70 L 500.80 405.10 L 499.40 400.80 L 497.70 400.40 L 494.60 400.70 L 492.30 401.40 L 483.50 406.10 L 481.10 406.90 L 477.90 407.30 L 474.70 407.20 L 470.50 406.00 L 468.60 404.90 L 466.90 403.50 L 464.40 400.00 L 463.10 397.00 L 462.40 393.80 L 462.00 389.80 L 462.30 386.40 L 463.10 383.30 L 464.50 380.20 L 468.40 374.10 L 465.20 369.60 L 462.40 364.80 L 460.60 360.90 L 459.30 357.00 L 458.40 352.90 L 458.10 349.90 L 458.60 343.70 L 459.40 340.50 L 461.20 336.30 L 463.50 332.50 L 466.40 329.00 L 469.60 325.90 L 473.20 323.20 L 477.20 321.00 L 481.50 319.10 L 485.60 317.70 L 489.60 316.80 L 493.50 316.40 L 501.50 316.90 L 510.20 319.10 L 522.70 310.00 L 525.90 308.20 L 531.80 306.10 L 537.50 305.60 L 541.00 305.90 L 544.30 306.70 L 547.40 307.90 L 550.30 309.60 L 553.10 311.60 L 555.60 313.90 L 557.80 316.50 L 561.30 322.30 L 563.60 328.60 L 564.40 331.80 L 565.10 336.90 L 565.20 341.90 L 564.90 345.80 L 564.20 349.40 L 563.10 352.70 L 561.50 355.90 L 559.40 358.90 L 556.80 361.80 L 558.00 366.70 L 559.00 378.10 L 558.70 385.10 L 557.20 390.70 L 555.90 393.30 L 554.30 395.60 L 552.30 397.70 L 549.80 399.50 L 547.20 400.90 L 544.50 401.70 L 538.70 402.40 L 535.60 402.20 L 536.20 411.20 L 536.20 420.20 L 545.80 421.40 L 554.90 421.10 L 560.70 420.40 L 566.50 419.20 L 578.00 415.70 L 588.80 410.80 L 594.10 407.90 L 603.80 401.10 L 612.50 393.30 L 612.30 384.10 L 613.50 340.50 L 613.40 325.40 L 612.00 280.30 L 611.50 242.50 L 610.90 226.40 L 610.90 217.60 L 611.70 211.10 L 614.50 210.10 L 622.20 209.50 L 677.30 210.80 L 716.20 212.50 L 738.70 214.10 L 748.00 215.60 L 746.90 239.10 L 739.00 312.90 L 736.80 339.80 L 735.20 366.70 L 735.10 374.40 L 735.40 382.30 L 738.20 411.60 L 738.10 413.50 L 737.40 415.20 L 735.60 415.90 L 733.70 416.10 L 700.40 417.00 L 642.80 420.50 L 636.10 433.70 L 633.40 438.20 L 630.50 442.50 L 625.90 448.30 L 620.80 453.60 L 615.30 458.60 L 609.40 463.20 L 603.30 467.40 L 590.30 474.90 L 576.90 481.00 L 580.30 493.40 L 586.00 518.40 L 590.90 543.30 L 592.70 555.60 L 593.20 557.10 L 594.30 558.20 L 626.40 558.20 L 786.50 556.90 L 799.20 555.60 L 804.60 554.30 L 808.20 553.20 L 811.50 551.60 L 814.60 549.70 L 817.60 547.20 L 820.00 544.50 L 821.80 541.70 L 824.20 535.20 L 825.70 525.50 L 826.00 511.80 L 824.20 477.10 L 821.00 402.90 L 812.40 187.80 L 810.50 170.10 L 809.60 165.20 L 807.10 157.40 L 804.00 152.00 L 802.00 150.00 L 800.00 148.40 L 797.80 147.30 L 794.20 146.20 L 790.20 145.50 L 779.60 144.50 L 757.00 143.80 L 613.40 143.20 L 481.70 143.70 L 405.00 144.30 L 328.30 145.40 L 292.50 146.30 L 231.20 148.30 L 222.80 149.00 L 214.70 150.30 L 209.60 152.40 L 207.50 153.80 L 205.20 156.00 L 201.70 160.80 L 199.00 167.30 L 198.10 171.20 L 197.60 175.30 L 197.30 182.40 L 197.40 190.30 L 219.50 526.10 L 220.30 533.30 L 221.10 537.50 L 222.30 541.40 L 224.90 546.20 L 226.70 548.50 L 230.50 552.20 L 234.90 555.20 L 239.70 557.50 L 244.80 558.90 L 253.00 559.70 L 263.50 559.90 L 294.70 559.20 L 410.60 558.90 L 423.60 559.00 L 436.40 559.50 L 433.50 555.50 L 428.60 547.00 L 426.60 542.30 L 425.30 537.70 L 424.40 533.00 L 424.10 528.20 L 424.30 523.30 L 424.90 518.50 L 425.90 513.70 L 427.40 509.00 L 429.80 502.60 L 432.90 496.10 L 440.50 482.60 L 449.80 469.40 L 460.30 456.90 L 471.90 445.20 L 483.90 435.20 L 490.30 430.80 L 496.40 427.00 L 502.50 423.80 L 501.50 409.70 Z M 549.40 424.60 L 546.80 427.70 L 543.90 430.50 L 537.30 435.00 L 529.90 438.30 L 524.10 440.00 L 518.20 441.20 L 513.10 441.70 L 507.90 441.80 L 502.80 441.40 L 497.80 440.40 L 494.50 439.40 L 488.30 436.40 L 478.40 444.30 L 465.30 456.70 L 457.60 465.10 L 448.20 477.00 L 439.80 489.60 L 436.30 495.90 L 433.20 502.20 L 430.70 508.70 L 428.80 515.00 L 427.50 521.10 L 427.10 525.70 L 427.10 530.20 L 427.70 534.40 L 430.10 542.60 L 431.80 546.60 L 435.10 552.30 L 439.00 557.90 L 442.70 562.40 L 446.60 566.40 L 450.90 570.30 L 462.00 578.90 L 462.90 578.20 L 463.30 577.10 L 468.00 540.80 L 473.10 508.70 L 476.30 493.10 L 476.90 491.70 L 478.00 492.00 L 478.50 494.00 L 478.40 496.10 L 477.10 506.40 L 471.70 537.30 L 465.80 578.90 L 465.80 580.50 L 466.60 581.90 L 467.90 583.00 L 469.70 583.80 L 480.20 587.50 L 487.60 589.50 L 495.20 591.10 L 502.90 592.20 L 518.50 593.60 L 530.20 594.00 L 548.90 593.90 L 556.20 593.40 L 563.40 592.50 L 570.50 591.20 L 577.60 589.50 L 587.30 586.30 L 590.10 585.00 L 592.20 583.40 L 592.60 582.30 L 592.70 577.90 L 591.60 568.70 L 585.40 531.60 L 581.00 509.70 L 578.00 497.10 L 573.50 480.30 L 573.20 478.40 L 573.40 476.50 L 574.20 476.00 L 576.40 477.30 L 583.20 474.90 L 597.60 467.10 L 605.20 462.10 L 612.40 456.60 L 617.40 452.20 L 622.20 447.40 L 626.60 442.20 L 630.70 436.50 L 630.10 432.40 L 629.20 428.40 L 627.90 424.60 L 624.10 417.50 L 619.00 411.20 L 615.90 408.40 L 611.90 405.40 L 607.50 402.90 L 601.20 407.20 L 589.30 414.20 L 583.20 417.00 L 577.00 419.40 L 570.60 421.30 L 564.10 422.80 L 557.00 423.90 L 549.40 424.60 Z M 665.90 352.40 L 666.70 350.50 L 666.20 349.70 L 663.90 348.50 L 656.70 346.00 L 655.10 345.00 L 653.70 343.60 L 653.80 342.50 L 655.70 340.50 L 659.90 338.10 L 664.30 336.60 L 666.80 336.50 L 667.60 337.00 L 667.50 338.20 L 666.80 339.20 L 665.70 340.00 L 661.60 341.60 L 659.60 343.10 L 661.90 344.70 L 668.90 345.90 L 670.50 343.00 L 671.90 339.20 L 672.30 335.90 L 672.00 334.70 L 671.40 333.70 L 669.70 333.10 L 665.60 333.00 L 659.50 334.30 L 657.50 335.10 L 655.80 336.20 L 653.10 339.40 L 646.20 353.70 L 640.70 362.20 L 633.20 372.70 L 624.80 383.60 L 616.60 393.50 L 609.70 400.70 L 613.30 402.70 L 618.40 406.30 L 622.90 410.70 L 625.50 413.90 L 627.80 417.40 L 630.60 423.00 L 632.40 428.90 L 633.20 432.90 L 638.70 421.60 L 644.60 407.20 L 649.90 392.50 L 656.20 372.30 L 658.70 365.70 L 662.10 359.00 L 665.90 352.40 Z M 491.00 434.70 L 495.60 436.60 L 503.50 438.60 L 510.20 438.90 L 516.40 438.10 L 522.80 436.80 L 531.10 434.20 L 535.10 432.40 L 538.90 430.30 L 542.30 427.80 L 545.50 424.90 L 539.30 423.70 L 532.60 422.90 L 529.30 422.90 L 519.50 423.80 L 509.50 425.40 L 502.10 428.00 L 494.80 431.90 L 491.00 434.70 Z M 494.10 865.30 L 503.90 865.00 L 505.30 853.70 L 498.30 855.80 L 494.50 856.40 L 490.60 856.80 L 482.80 856.60 L 479.00 856.00 L 475.40 855.00 L 472.10 853.70 L 467.70 850.40 L 459.60 857.10 L 451.90 864.40 L 473.00 865.20 L 494.10 865.30 Z M 668.20 302.30 L 672.50 301.60 L 676.50 300.40 L 680.40 298.70 L 684.00 296.60 L 687.20 293.90 L 690.20 290.70 L 692.00 288.00 L 694.70 282.20 L 695.50 279.20 L 695.90 276.00 L 695.40 270.70 L 694.00 266.60 L 691.90 262.90 L 688.30 259.00 L 684.30 256.50 L 681.00 255.20 L 677.40 254.50 L 673.80 254.20 L 669.30 254.90 L 665.00 256.00 L 660.90 257.60 L 657.10 259.70 L 652.60 263.40 L 650.50 265.80 L 648.80 268.50 L 647.50 271.30 L 646.60 274.20 L 646.20 277.10 L 646.10 280.20 L 646.50 283.40 L 648.30 289.30 L 649.70 292.10 L 651.50 294.60 L 653.70 296.80 L 656.20 298.80 L 659.00 300.30 L 661.90 301.30 L 668.20 302.30 Z M 521.00 622.10 L 521.00 628.00 L 521.60 634.00 L 525.70 660.00 L 528.50 674.10 L 534.80 702.30 L 535.90 702.90 L 537.20 703.10 L 536.00 695.80 L 530.90 674.10 L 529.10 665.50 L 525.00 639.30 L 523.20 625.50 L 522.50 622.90 L 521.00 622.10 Z M 564.00 866.30 L 576.80 866.90 L 594.60 867.10 L 606.40 866.50 L 612.20 865.60 L 609.30 862.60 L 602.80 857.00 L 598.70 854.40 L 597.30 854.00 L 594.00 855.10 L 589.70 856.10 L 580.20 857.10 L 570.80 857.00 L 566.50 856.40 L 563.20 855.60 L 563.20 861.00 L 564.00 866.30 Z M 556.10 377.30 L 554.20 365.60 L 553.50 364.00 L 552.00 363.10 L 550.40 362.70 L 544.70 362.30 L 545.70 367.00 L 546.20 371.50 L 546.20 375.90 L 545.90 379.20 L 545.10 382.40 L 544.00 385.70 L 542.40 388.90 L 540.90 391.20 L 539.10 393.30 L 534.90 396.80 L 535.60 398.60 L 537.40 399.30 L 539.40 399.40 L 543.80 398.60 L 546.00 397.80 L 549.60 395.60 L 552.50 392.20 L 554.70 387.20 L 555.40 383.90 L 556.10 377.30 Z M 504.90 415.30 L 505.40 423.00 L 512.40 421.60 L 519.20 420.60 L 533.20 419.70 L 531.90 397.90 L 530.30 398.30 L 528.30 403.50 L 526.90 405.90 L 525.00 407.90 L 522.90 409.50 L 520.40 410.50 L 517.60 411.00 L 506.20 411.30 L 504.90 412.10 L 504.90 415.30 Z M 614.00 212.50 L 614.60 254.50 L 617.00 344.60 L 616.70 364.10 L 615.60 383.90 L 615.00 390.00 L 624.60 378.30 L 633.70 366.30 L 631.40 366.10 L 629.30 365.50 L 628.70 365.10 L 628.40 364.20 L 630.70 363.40 L 634.70 363.00 L 635.90 362.60 L 637.60 361.30 L 641.30 356.20 L 646.40 346.60 L 648.60 341.80 L 641.00 342.70 L 637.90 342.20 L 637.10 341.60 L 637.40 341.30 L 638.80 340.30 L 640.80 339.70 L 649.00 339.10 L 651.20 336.10 L 653.30 334.30 L 655.70 332.80 L 658.20 331.70 L 663.90 330.10 L 665.60 305.90 L 659.10 304.00 L 656.20 302.70 L 653.40 301.00 L 650.90 298.90 L 648.60 296.20 L 646.60 293.10 L 645.00 289.50 L 643.80 285.80 L 643.10 282.00 L 642.90 278.10 L 643.50 273.10 L 644.70 269.40 L 646.40 265.80 L 648.60 262.60 L 651.30 259.80 L 654.50 257.40 L 658.40 255.10 L 662.60 253.30 L 667.10 252.00 L 671.70 251.30 L 674.80 251.20 L 680.80 251.80 L 683.80 252.70 L 686.50 253.90 L 691.20 257.40 L 695.10 262.10 L 696.70 264.90 L 697.90 267.90 L 698.70 271.00 L 699.20 274.20 L 699.10 277.40 L 698.60 280.70 L 696.40 286.90 L 692.70 293.30 L 690.30 296.00 L 688.00 297.90 L 691.80 300.90 L 693.30 302.90 L 694.20 305.10 L 694.30 307.40 L 692.30 306.40 L 690.50 305.00 L 689.10 303.20 L 687.70 300.30 L 688.00 297.90 L 682.20 301.60 L 679.00 303.00 L 674.00 304.60 L 668.90 305.70 L 666.80 329.70 L 670.10 329.10 L 671.70 329.10 L 673.30 329.70 L 674.20 330.50 L 674.80 331.50 L 675.40 333.70 L 675.40 338.00 L 703.20 337.80 L 708.40 338.40 L 710.60 339.10 L 710.30 339.70 L 709.60 339.90 L 705.80 340.60 L 686.20 340.70 L 674.70 340.30 L 673.90 344.00 L 670.70 351.50 L 664.50 362.00 L 703.50 361.60 L 706.60 361.80 L 709.40 362.40 L 709.70 363.50 L 703.50 364.50 L 662.90 365.00 L 659.10 374.30 L 651.00 399.60 L 644.00 417.00 L 651.10 416.90 L 703.90 413.90 L 735.30 413.30 L 732.60 387.50 L 732.10 378.90 L 732.30 355.60 L 734.40 326.30 L 740.00 273.90 L 745.10 218.30 L 727.00 216.50 L 690.60 214.30 L 643.20 212.70 L 614.00 212.50 Z" fill="#191818" fill-rule="nonzero" node-id="47" stroke="none" target-height="739.5" target-width="641.9" target-x="190.5" target-y="137.9"></path><path d="M 593.30 807.40 L 594.00 806.40 L 596.60 806.90 L 598.10 833.60 L 599.80 846.70 L 600.00 850.60 L 602.20 852.80 L 611.60 859.60 L 613.60 861.70 L 615.80 865.10 L 616.60 867.40 L 616.00 868.90 L 615.10 870.20 L 614.40 868.70 L 615.10 868.90 L 615.00 865.20 L 614.50 863.70 L 613.10 861.80 L 611.20 860.20 L 602.50 854.50 L 601.30 853.40 L 599.80 850.70 L 598.40 842.80 L 596.50 813.10 L 595.80 809.40 L 595.10 807.20 L 594.70 808.10 L 594.40 813.90 L 596.80 845.30 L 596.70 850.50 L 595.80 851.40 L 592.30 853.10 L 589.80 853.80 L 583.20 854.50 L 567.50 853.80 L 563.80 853.00 L 561.90 851.40 L 561.30 850.10 L 560.30 845.30 L 559.50 837.50 L 559.00 835.70 L 558.10 835.50 L 554.40 836.40 L 553.30 836.40 L 552.90 835.10 L 556.40 835.20 L 552.70 807.90 L 556.20 806.90 L 560.60 841.80 L 562.80 852.20 L 574.10 853.40 L 579.90 853.70 L 585.60 853.40 L 589.30 852.80 L 592.90 851.80 L 596.50 850.50 L 594.70 828.90 L 593.30 807.40 Z" fill="#000000" fill-rule="nonzero" node-id="49" stroke="none" target-height="63.799988" target-width="63.899963" target-x="552.7" target-y="806.4"></path><path d="M 511.10 812.00 L 514.40 813.00 L 509.60 842.40 L 507.40 845.10 L 506.40 845.50 L 506.90 837.10 L 508.10 828.70 L 511.10 812.00 Z" fill="#000000" fill-rule="nonzero" node-id="51" stroke="none" target-height="33.5" target-width="8.0000305" target-x="506.4" target-y="812"></path><path d="M 289.40 356.90 L 296.80 358.50 L 304.30 360.70 L 311.10 363.80 L 324.70 368.20 L 331.50 370.90 L 337.80 373.80 L 334.70 382.90 L 324.30 409.90 L 319.40 423.70 L 316.80 429.60 L 315.50 430.60 L 312.70 430.40 L 305.00 427.90 L 277.60 416.50 L 270.10 413.10 L 265.90 410.60 L 267.10 406.00 L 270.00 398.20 L 278.00 379.00 L 286.30 361.00 L 289.40 356.90 Z M 288.30 364.20 L 268.90 409.00 L 306.40 425.20 L 314.30 428.00 L 334.00 375.60 L 317.60 369.60 L 312.40 367.30 L 290.90 360.20 L 288.30 364.20 Z" fill="#000000" fill-rule="nonzero" node-id="53" stroke="none" target-height="73.70001" target-width="71.899994" target-x="265.9" target-y="356.9"></path><path d="M 290.50 377.70 L 301.50 380.90 L 316.30 386.00 L 320.70 388.00 L 321.40 389.90 L 318.70 389.80 L 310.60 388.10 L 297.40 383.60 L 290.90 380.90 L 290.40 379.30 L 290.50 377.70 Z" fill="#000000" fill-rule="nonzero" node-id="55" stroke="none" target-height="12.199982" target-width="31" target-x="290.4" target-y="377.7"></path><path d="M 289.40 356.90 L 300.60 359.50 L 307.80 362.10 L 311.10 363.80 L 312.70 366.30 L 312.40 367.30 L 290.90 360.20 L 288.30 364.20 L 287.90 363.40 L 288.60 362.00 L 291.40 358.80 L 291.40 358.10 L 290.10 358.20 L 288.90 359.10 L 286.00 363.70 L 284.20 365.70 L 286.30 361.00 L 289.40 356.90 Z" fill="#191818" fill-rule="nonzero" node-id="57" stroke="none" target-height="10.399994" target-width="28.5" target-x="284.2" target-y="356.9"></path><path d="M 700.80 443.90 L 708.90 443.10 L 725.40 442.70 L 750.00 443.60 L 755.10 444.70 L 754.20 461.70 L 753.90 488.10 L 753.40 496.90 L 752.40 502.30 L 747.30 503.10 L 727.20 503.60 L 706.70 502.90 L 701.10 502.20 L 700.50 492.10 L 700.80 443.90 Z M 703.50 499.90 L 749.80 500.10 L 751.80 446.90 L 743.70 446.10 L 723.70 446.10 L 703.80 446.60 L 703.20 478.40 L 703.50 499.90 Z" fill="#000000" fill-rule="nonzero" node-id="59" stroke="none" target-height="60.899994" target-width="54.599976" target-x="700.5" target-y="442.7"></path><path d="M 750.00 443.60 L 755.10 444.70 L 754.20 461.70 L 753.50 457.90 L 751.60 454.60 L 751.80 446.90 L 743.70 446.10 L 748.60 445.90 L 749.60 445.00 L 750.00 443.60 Z" fill="#191818" fill-rule="nonzero" node-id="61" stroke="none" target-height="18.100006" target-width="11.399963" target-x="743.7" target-y="443.6"></path><path d="M 371.00 225.40 L 369.60 211.60 L 369.10 203.10 L 369.20 195.50 L 370.00 190.20 L 375.00 189.10 L 384.20 188.30 L 395.70 187.70 L 416.90 187.60 L 422.40 188.10 L 423.50 188.70 L 424.00 190.90 L 424.40 195.00 L 424.70 205.10 L 424.00 229.20 L 423.10 239.50 L 422.10 246.20 L 417.20 247.20 L 408.70 247.70 L 387.70 247.80 L 372.50 247.40 L 371.70 240.50 L 371.00 225.40 Z M 373.50 220.10 L 375.10 244.50 L 407.60 244.60 L 415.10 244.30 L 419.30 243.70 L 420.00 241.10 L 419.60 236.50 L 420.70 225.60 L 421.10 216.90 L 421.30 208.20 L 421.00 190.80 L 412.40 190.70 L 372.50 192.10 L 372.60 206.10 L 373.50 220.10 Z" fill="#000000" fill-rule="nonzero" node-id="63" stroke="none" target-height="60.199997" target-width="55.600006" target-x="369.1" target-y="187.6"></path><path d="M 404.90 201.80 L 406.50 202.80 L 406.50 203.90 L 405.30 205.40 L 399.90 209.60 L 384.90 218.90 L 384.10 218.10 L 383.80 217.10 L 386.30 214.30 L 396.20 207.20 L 404.90 201.80 Z" fill="#000000" fill-rule="nonzero" node-id="65" stroke="none" target-height="17.09999" target-width="22.700012" target-x="383.8" target-y="201.8"></path><path d="M 410.80 217.50 L 411.60 218.40 L 411.80 219.60 L 410.50 221.00 L 405.20 224.80 L 395.30 230.40 L 390.30 232.90 L 388.90 231.20 L 389.80 230.20 L 396.30 225.60 L 410.80 217.50 Z" fill="#000000" fill-rule="nonzero" node-id="67" stroke="none" target-height="15.399994" target-width="22.899994" target-x="388.9" target-y="217.5"></path><path d="M 373.70 223.70 L 373.90 229.10 L 372.30 232.70 L 371.20 233.60 L 371.00 226.20 L 373.70 223.70 Z" fill="#191818" fill-rule="nonzero" node-id="69" stroke="none" target-height="9.900009" target-width="2.899994" target-x="371" target-y="223.7"></path><path d="M 380.10 453.70 L 399.10 453.70 L 399.10 482.60 L 398.30 504.20 L 397.70 507.60 L 397.30 508.60 L 396.00 509.30 L 393.60 510.00 L 387.30 510.90 L 373.30 511.40 L 347.50 510.50 L 346.90 468.50 L 347.10 454.50 L 363.60 453.80 L 380.10 453.70 Z M 350.00 457.60 L 349.40 471.90 L 349.90 496.80 L 350.60 507.40 L 351.80 508.10 L 353.20 508.20 L 374.40 508.40 L 385.00 508.00 L 395.50 507.00 L 396.30 469.70 L 396.10 461.10 L 395.50 457.00 L 392.50 456.80 L 350.00 457.60 Z" fill="#000000" fill-rule="nonzero" node-id="71" stroke="none" target-height="57.69998" target-width="52.200012" target-x="346.9" target-y="453.7"></path><path d="M 355.00 462.10 L 379.30 462.00 L 389.40 462.50 L 391.20 463.50 L 390.40 464.70 L 385.20 465.10 L 368.80 465.40 L 361.10 465.20 L 358.00 465.00 L 355.10 464.20 L 354.30 463.30 L 355.00 462.10 Z" fill="#000000" fill-rule="nonzero" node-id="73" stroke="none" target-height="3.399994" target-width="36.900024" target-x="354.3" target-y="462"></path><path d="M 407.50 285.20 L 418.30 285.30 L 421.80 285.60 L 424.60 286.20 L 425.20 286.70 L 425.70 288.30 L 426.60 295.30 L 426.90 310.90 L 426.70 321.90 L 425.70 337.70 L 417.90 338.50 L 409.90 338.90 L 381.00 339.20 L 374.80 338.20 L 374.10 336.00 L 373.60 332.50 L 373.00 323.50 L 373.00 301.70 L 373.50 292.60 L 374.30 287.20 L 378.80 286.20 L 386.00 285.60 L 407.50 285.20 Z M 400.90 336.10 L 412.00 335.70 L 423.20 334.90 L 423.60 311.90 L 422.90 288.90 L 410.80 288.50 L 387.30 288.70 L 380.80 289.10 L 378.20 289.50 L 377.00 290.10 L 376.50 295.10 L 376.00 313.50 L 376.10 323.30 L 377.00 333.90 L 377.40 335.00 L 378.10 335.50 L 382.70 336.20 L 400.90 336.10 Z" fill="#191818" fill-rule="nonzero" node-id="75" stroke="none" target-height="54" target-width="53.899994" target-x="373" target-y="285.2"></path><path d="M 507.20 202.90 L 508.10 203.10 L 509.20 203.70 L 511.40 206.10 L 516.90 213.00 L 529.90 231.30 L 538.00 243.90 L 531.30 249.00 L 496.80 273.10 L 495.30 273.40 L 494.20 272.60 L 492.10 270.30 L 486.90 263.60 L 474.50 245.80 L 466.20 233.00 L 470.20 229.40 L 485.80 217.50 L 502.20 206.00 L 507.20 202.90 Z M 470.20 233.90 L 489.60 261.20 L 494.00 267.10 L 496.30 269.60 L 515.30 256.50 L 533.70 242.80 L 520.90 224.40 L 507.40 206.50 L 497.90 212.80 L 488.40 219.60 L 470.20 233.90 Z" fill="#000000" fill-rule="nonzero" node-id="77" stroke="none" target-height="70.5" target-width="71.79999" target-x="466.2" target-y="202.9"></path><path d="M 302.40 253.60 L 301.90 255.20 L 301.00 256.60 L 296.40 257.10 L 287.70 257.60 L 266.10 257.80 L 257.30 257.50 L 252.80 257.00 L 251.80 253.50 L 250.90 240.90 L 250.70 230.20 L 251.30 214.70 L 252.30 207.40 L 253.00 205.70 L 255.20 205.20 L 267.50 204.30 L 296.40 204.50 L 299.40 204.80 L 301.90 206.20 L 302.60 208.80 L 303.20 213.10 L 303.60 223.40 L 303.50 234.90 L 302.40 253.60 Z M 299.30 254.20 L 299.90 248.10 L 300.30 238.10 L 300.40 228.00 L 299.80 207.90 L 294.90 207.50 L 267.80 207.50 L 254.60 208.40 L 253.40 225.20 L 253.30 238.10 L 254.30 249.80 L 255.20 254.40 L 262.40 255.10 L 269.80 255.30 L 299.30 254.20 Z" fill="#000000" fill-rule="nonzero" node-id="79" stroke="none" target-height="53.499985" target-width="52.90001" target-x="250.7" target-y="204.3"></path><path d="M 293.40 204.50 L 297.90 204.60 L 300.80 205.30 L 301.90 206.20 L 302.60 208.80 L 303.20 213.10 L 303.60 223.40 L 303.50 234.90 L 302.40 253.60 L 299.90 248.10 L 300.40 228.00 L 299.80 207.90 L 294.90 207.50 L 293.40 204.50 Z" fill="#191818" fill-rule="nonzero" node-id="81" stroke="none" target-height="49.100006" target-width="10.200012" target-x="293.4" target-y="204.5"></path><path d="M 562.10 252.50 L 584.70 252.50 L 601.30 253.20 L 605.30 253.80 L 606.10 255.90 L 600.30 256.20 L 582.70 256.20 L 565.80 255.40 L 562.10 254.50 L 562.10 252.50 Z" fill="#000000" fill-rule="nonzero" node-id="83" stroke="none" target-height="3.7000122" target-width="44" target-x="562.1" target-y="252.5"></path><path d="M 563.10 259.60 L 576.00 259.70 L 594.40 260.80 L 601.70 261.80 L 604.40 262.50 L 605.70 263.10 L 606.10 263.70 L 606.20 264.50 L 594.70 264.10 L 564.10 261.90 L 563.20 261.40 L 563.10 259.60 Z" fill="#000000" fill-rule="nonzero" node-id="85" stroke="none" target-height="4.899994" target-width="43.100037" target-x="563.1" target-y="259.6"></path><path d="M 681.30 386.60 L 693.30 385.90 L 702.90 385.90 L 705.10 386.20 L 706.80 386.80 L 708.30 387.80 L 708.60 388.40 L 704.90 389.10 L 698.00 389.40 L 678.10 389.60 L 679.40 388.90 L 680.20 387.70 L 679.70 387.70 L 679.70 387.40 L 681.30 386.60 Z" fill="#191818" fill-rule="nonzero" node-id="87" stroke="none" target-height="3.7000122" target-width="30.5" target-x="678.1" target-y="385.9"></path><path d="M 678.10 389.60 L 668.00 390.70 L 662.50 390.70 L 660.10 390.40 L 658.30 389.80 L 658.60 389.00 L 660.60 388.20 L 666.40 387.00 L 676.00 386.50 L 681.30 386.60 L 679.70 387.40 L 679.70 387.70 L 680.20 387.70 L 679.40 388.90 L 678.10 389.60 Z" fill="#000000" fill-rule="nonzero" node-id="89" stroke="none" target-height="4.200012" target-width="23" target-x="658.3" target-y="386.5"></path><path d="M 696.10 240.30 L 697.60 241.40 L 697.60 242.20 L 697.10 243.90 L 694.50 247.50 L 689.90 252.00 L 688.30 251.10 L 688.80 249.30 L 690.00 247.30 L 696.10 240.30 Z" fill="#000000" fill-rule="nonzero" node-id="91" stroke="none" target-height="11.699997" target-width="9.299988" target-x="688.3" target-y="240.3"></path><path d="M 670.00 230.10 L 671.70 231.00 L 672.40 232.40 L 672.70 234.20 L 672.40 238.10 L 671.70 241.60 L 670.20 240.80 L 669.40 238.90 L 669.40 233.30 L 670.00 230.10 Z" fill="#000000" fill-rule="nonzero" node-id="93" stroke="none" target-height="11.5" target-width="3.2999878" target-x="669.4" target-y="230.1"></path><path d="M 641.30 240.70 L 643.50 241.60 L 645.60 244.10 L 646.80 247.50 L 647.40 250.80 L 645.70 249.90 L 644.20 248.60 L 643.00 246.80 L 642.00 244.90 L 641.40 242.90 L 641.30 240.70 Z" fill="#000000" fill-rule="nonzero" node-id="95" stroke="none" target-height="10.100006" target-width="6.1000366" target-x="641.3" target-y="240.7"></path><path d="M 636.00 294.40 L 637.80 296.00 L 637.50 297.00 L 634.40 298.80 L 630.90 300.00 L 628.60 299.60 L 628.70 299.00 L 629.20 298.10 L 630.40 297.10 L 636.00 294.40 Z" fill="#000000" fill-rule="nonzero" node-id="97" stroke="none" target-height="5.600006" target-width="9.200012" target-x="628.6" target-y="294.4"></path><path d="M 712.80 265.10 L 714.20 265.30 L 714.60 266.50 L 714.20 267.40 L 710.70 268.70 L 707.10 269.40 L 705.90 269.40 L 704.80 268.90 L 706.30 267.20 L 707.50 266.50 L 712.80 265.10 Z" fill="#000000" fill-rule="nonzero" node-id="99" stroke="none" target-height="4.299988" target-width="9.799988" target-x="704.8" target-y="265.1"></path><path d="M 707.00 284.90 L 712.80 286.30 L 714.10 286.90 L 715.30 288.30 L 715.10 290.30 L 711.70 289.70 L 708.10 288.10 L 706.70 286.30 L 707.00 284.90 Z" fill="#000000" fill-rule="nonzero" node-id="101" stroke="none" target-height="5.399994" target-width="8.599976" target-x="706.7" target-y="284.9"></path><path d="M 626.40 274.50 L 630.10 274.90 L 633.60 275.80 L 634.50 276.40 L 635.00 277.40 L 634.40 278.30 L 630.30 278.30 L 628.40 277.90 L 626.60 277.00 L 626.20 275.80 L 626.40 274.50 Z" fill="#000000" fill-rule="nonzero" node-id="103" stroke="none" target-height="3.7999878" target-width="8.799988" target-x="626.2" target-y="274.5"></path><path d="M 510.20 319.10 L 522.70 310.00 L 525.90 308.20 L 529.40 306.70 L 534.50 305.70 L 537.50 305.60 L 541.00 305.90 L 544.30 306.70 L 547.40 307.90 L 550.30 309.60 L 553.10 311.60 L 555.60 313.90 L 559.70 319.30 L 562.60 325.40 L 564.40 331.80 L 565.10 336.90 L 565.20 341.90 L 564.90 345.80 L 564.20 349.40 L 563.10 352.70 L 561.50 355.90 L 559.40 358.90 L 556.80 361.80 L 558.00 366.70 L 555.90 367.10 L 554.20 365.60 L 553.50 364.00 L 552.00 363.10 L 550.40 362.70 L 544.70 362.30 L 545.70 367.00 L 546.20 371.50 L 546.20 375.90 L 545.90 379.20 L 545.10 382.40 L 544.00 385.70 L 542.40 388.90 L 540.90 391.20 L 537.10 395.10 L 534.90 396.80 L 534.30 396.50 L 534.10 397.00 L 531.90 397.90 L 530.30 398.30 L 528.30 403.50 L 526.90 405.90 L 525.00 407.90 L 522.90 409.50 L 520.40 410.50 L 517.60 411.00 L 506.20 411.30 L 504.90 412.10 L 504.90 415.30 L 504.40 412.10 L 503.90 411.30 L 501.50 409.70 L 500.80 405.10 L 499.40 400.80 L 497.70 400.40 L 494.60 400.70 L 492.30 401.40 L 485.70 405.10 L 481.10 406.90 L 477.90 407.30 L 474.70 407.20 L 472.50 406.80 L 468.60 404.90 L 465.50 401.80 L 464.40 400.00 L 463.10 397.00 L 462.40 393.80 L 462.00 389.80 L 462.30 386.40 L 463.10 383.30 L 464.50 380.20 L 468.40 374.10 L 465.20 369.60 L 462.40 364.80 L 460.60 360.90 L 459.30 357.00 L 458.40 352.90 L 458.10 346.80 L 458.60 343.70 L 459.40 340.50 L 461.20 336.30 L 463.50 332.50 L 466.40 329.00 L 469.60 325.90 L 473.20 323.20 L 477.20 321.00 L 481.50 319.10 L 485.60 317.70 L 489.60 316.80 L 493.50 316.40 L 501.50 316.90 L 510.20 319.10 Z" fill="#191818" fill-rule="nonzero" node-id="105" stroke="none" target-height="109.69998" target-width="107.100006" target-x="458.1" target-y="305.6"></path><path d="M 684.80 269.40 L 685.60 271.60 L 683.20 275.10 L 679.20 278.90 L 671.30 285.30 L 668.10 281.10 L 665.80 276.40 L 664.60 272.10 L 664.80 272.40 L 664.90 270.50 L 666.30 271.50 L 667.70 273.10 L 671.70 280.90 L 677.90 274.80 L 681.30 271.80 L 684.80 269.40 Z" fill="#000000" fill-rule="nonzero" node-id="107" stroke="none" target-height="15.899994" target-width="21" target-x="664.6" target-y="269.4"></path><path d="M 462.00 578.90 L 460.40 578.60 L 458.90 577.80 L 453.70 574.10 L 448.50 569.80 L 443.50 564.90 L 439.00 559.60 L 436.10 555.90 L 431.40 548.10 L 429.50 544.00 L 427.00 535.70 L 426.30 530.80 L 426.20 525.90 L 426.70 521.00 L 427.60 516.10 L 430.60 506.50 L 433.60 499.40 L 437.20 492.60 L 445.00 480.10 L 452.80 469.30 L 457.10 464.10 L 466.00 454.30 L 470.80 449.60 L 482.50 439.20 L 486.00 436.70 L 486.80 436.50 L 488.90 436.70 L 499.50 439.70 L 507.50 440.90 L 515.40 440.80 L 523.60 439.30 L 533.00 436.00 L 540.50 432.30 L 545.00 428.80 L 547.30 425.60 L 549.40 424.10 L 553.60 423.30 L 560.80 422.80 L 569.30 420.80 L 577.90 418.20 L 589.10 413.70 L 594.40 410.90 L 599.50 407.80 L 604.30 404.30 L 608.60 400.50 L 612.80 396.10 L 628.40 377.00 L 645.30 353.70 L 648.10 348.70 L 650.50 343.50 L 652.00 338.80 L 652.70 337.60 L 654.30 335.90 L 656.40 334.60 L 658.70 333.60 L 668.70 331.50 L 670.60 331.60 L 672.10 332.20 L 672.80 333.70 L 672.70 338.20 L 671.30 343.40 L 669.30 347.40 L 668.00 347.30 L 666.50 346.20 L 661.80 345.60 L 660.70 345.20 L 658.70 343.40 L 658.90 342.30 L 659.70 341.50 L 665.90 338.70 L 666.70 337.80 L 666.40 337.10 L 664.40 337.30 L 662.50 338.00 L 657.30 341.30 L 654.80 342.00 L 654.40 342.60 L 654.90 343.70 L 657.60 345.50 L 660.80 346.80 L 667.30 348.70 L 667.50 350.20 L 666.80 353.80 L 665.90 352.40 L 666.70 350.50 L 666.20 349.70 L 663.90 348.50 L 656.70 346.00 L 655.10 345.00 L 653.70 343.60 L 653.80 342.50 L 655.70 340.50 L 659.90 338.10 L 664.30 336.60 L 666.80 336.50 L 667.60 337.00 L 667.50 338.20 L 666.80 339.20 L 665.70 340.00 L 661.60 341.60 L 659.60 343.10 L 661.90 344.70 L 668.90 345.90 L 670.50 343.00 L 671.90 339.20 L 672.30 335.90 L 672.00 334.70 L 671.40 333.70 L 669.70 333.10 L 665.60 333.00 L 659.50 334.30 L 657.50 335.10 L 655.80 336.20 L 653.10 339.40 L 646.20 353.70 L 640.70 362.20 L 633.20 372.70 L 624.80 383.60 L 616.60 393.50 L 609.70 400.70 L 613.30 402.70 L 618.40 406.30 L 622.90 410.70 L 625.50 413.90 L 627.80 417.40 L 630.60 423.00 L 632.40 428.90 L 633.20 432.90 L 638.70 421.60 L 640.90 424.40 L 633.40 438.20 L 630.50 442.50 L 625.90 448.30 L 620.80 453.60 L 615.30 458.60 L 609.40 463.20 L 603.30 467.40 L 596.90 471.30 L 590.30 474.90 L 576.90 481.00 L 583.30 505.90 L 592.00 549.50 L 592.70 555.60 L 592.00 556.80 L 592.20 556.20 L 592.00 555.90 L 590.10 559.20 L 583.70 522.50 L 578.00 497.10 L 573.50 480.30 L 573.20 478.40 L 573.40 476.50 L 574.20 476.00 L 576.40 477.30 L 583.20 474.90 L 597.60 467.10 L 605.20 462.10 L 612.40 456.60 L 617.40 452.20 L 622.20 447.40 L 626.60 442.20 L 630.70 436.50 L 630.10 432.40 L 629.20 428.40 L 627.90 424.60 L 624.10 417.50 L 619.00 411.20 L 615.90 408.40 L 611.90 405.40 L 607.50 402.90 L 601.20 407.20 L 589.30 414.20 L 583.20 417.00 L 577.00 419.40 L 570.60 421.30 L 564.10 422.80 L 557.00 423.90 L 549.40 424.60 L 546.80 427.70 L 543.90 430.50 L 537.30 435.00 L 529.90 438.30 L 524.10 440.00 L 518.20 441.20 L 513.10 441.70 L 507.90 441.80 L 502.80 441.40 L 497.80 440.40 L 494.50 439.40 L 488.30 436.40 L 478.40 444.30 L 473.00 449.10 L 465.30 456.70 L 457.60 465.10 L 452.80 471.00 L 443.80 483.20 L 439.80 489.60 L 436.30 495.90 L 433.20 502.20 L 430.70 508.70 L 428.80 515.00 L 427.50 521.10 L 427.10 525.70 L 427.10 530.20 L 427.70 534.40 L 430.10 542.60 L 431.80 546.60 L 435.10 552.30 L 439.00 557.90 L 442.70 562.40 L 446.60 566.40 L 450.90 570.30 L 462.00 578.90 Z" fill="#000000" fill-rule="nonzero" node-id="109" stroke="none" target-height="247.40002" target-width="246.59998" target-x="426.2" target-y="331.5"></path><path d="M 463.30 577.10 L 468.00 540.80 L 473.10 508.70 L 476.30 493.10 L 476.90 491.70 L 478.00 492.00 L 478.50 494.00 L 478.40 496.10 L 477.10 506.40 L 471.70 537.30 L 465.80 578.90 L 463.90 578.40 L 463.30 577.10 Z" fill="#000000" fill-rule="nonzero" node-id="111" stroke="none" target-height="87.20001" target-width="15.200012" target-x="463.3" target-y="491.7"></path><path d="M 675.40 338.00 L 695.40 338.00 L 697.70 340.50 L 686.20 340.70 L 674.70 340.30 L 675.40 338.00 Z" fill="#191818" fill-rule="nonzero" node-id="113" stroke="none" target-height="2.7000122" target-width="23" target-x="674.7" target-y="338"></path><path d="M 554.20 365.60 L 555.90 367.10 L 558.00 366.70 L 558.90 374.30 L 558.90 382.00 L 558.20 381.30 L 557.60 379.10 L 556.10 377.30 L 554.20 365.60 Z" fill="#000000" fill-rule="nonzero" node-id="115" stroke="none" target-height="16.399994" target-width="4.700012" target-x="554.2" target-y="365.6"></path><path d="M 695.40 338.00 L 705.80 338.00 L 710.60 339.10 L 710.30 339.70 L 709.60 339.90 L 705.80 340.60 L 697.70 340.50 L 695.40 338.00 Z" fill="#000000" fill-rule="nonzero" node-id="117" stroke="none" target-height="2.600006" target-width="15.199951" target-x="695.4" target-y="338"></path><path d="M 697.50 361.70 L 706.60 361.80 L 709.40 362.40 L 709.70 363.50 L 703.50 364.50 L 697.10 364.50 L 697.50 361.70 Z" fill="#000000" fill-rule="nonzero" node-id="119" stroke="none" target-height="2.7999878" target-width="12.600037" target-x="697.1" target-y="361.7"></path><path d="M 688.00 297.90 L 691.80 300.90 L 693.30 302.90 L 694.20 305.10 L 694.30 307.40 L 692.30 306.40 L 690.50 305.00 L 689.10 303.20 L 687.70 300.30 L 688.00 297.90 Z" fill="#000000" fill-rule="nonzero" node-id="121" stroke="none" target-height="9.5" target-width="6.5999756" target-x="687.7" target-y="297.9"></path><path d="M 403.50 867.40 L 411.00 870.30 L 418.60 872.80 L 426.30 874.90 L 438.10 877.30 L 450.00 879.20 L 473.90 881.60 L 493.20 883.10 L 512.50 884.00 L 531.80 884.30 L 592.20 883.00 L 590.10 885.50 L 590.40 886.20 L 584.50 886.90 L 576.80 887.20 L 543.10 887.60 L 519.70 887.40 L 494.00 886.50 L 467.80 884.70 L 455.00 883.30 L 442.80 881.60 L 434.90 880.20 L 420.70 877.00 L 414.00 875.00 L 408.20 872.90 L 403.30 870.70 L 403.50 867.40 Z" fill="#191818" fill-rule="nonzero" node-id="123" stroke="none" target-height="20.199951" target-width="188.90002" target-x="403.3" target-y="867.4"></path><path d="M 677.40 860.80 L 678.30 862.50 L 678.50 864.40 L 677.80 866.20 L 676.40 867.70 L 674.80 869.10 L 669.30 872.00 L 663.20 874.70 L 650.60 879.00 L 640.70 881.30 L 630.70 883.10 L 620.50 884.40 L 610.40 885.30 L 590.40 886.20 L 590.10 885.50 L 592.20 883.00 L 629.00 879.60 L 637.70 878.20 L 646.50 876.30 L 658.40 872.50 L 668.40 868.40 L 672.20 866.40 L 675.30 864.00 L 674.00 862.70 L 672.30 861.80 L 674.80 861.50 L 677.40 860.80 Z" fill="#000000" fill-rule="nonzero" node-id="125" stroke="none" target-height="25.400024" target-width="88.400024" target-x="590.1" target-y="860.8"></path><path d="M 599.80 846.70 L 609.80 847.40 L 623.90 849.00 L 648.00 852.70 L 662.90 855.70 L 668.80 857.30 L 674.20 859.20 L 677.40 860.80 L 673.50 861.70 L 670.30 861.60 L 657.20 858.30 L 627.80 852.90 L 609.90 850.50 L 601.70 850.20 L 600.00 850.60 L 599.80 846.70 Z" fill="#191818" fill-rule="nonzero" node-id="127" stroke="none" target-height="15" target-width="77.60004" target-x="599.8" target-y="846.7"></path><path d="M 403.30 870.70 L 399.80 868.10 L 398.60 866.50 L 397.80 864.40 L 398.40 862.10 L 400.20 860.20 L 405.50 857.40 L 417.90 853.30 L 426.90 851.00 L 436.00 849.40 L 445.10 848.20 L 463.70 846.90 L 462.40 848.60 L 461.40 850.60 L 453.60 850.80 L 442.90 851.90 L 431.00 853.70 L 419.30 856.10 L 409.40 859.10 L 404.50 861.50 L 402.20 863.40 L 401.80 864.30 L 402.00 865.40 L 403.50 867.40 L 403.30 870.70 Z" fill="#000000" fill-rule="nonzero" node-id="129" stroke="none" target-height="23.799988" target-width="65.900024" target-x="397.8" target-y="846.9"></path></svg>